%TF.GenerationSoftware,KiCad,Pcbnew,8.0.4*%
%TF.CreationDate,2024-08-08T16:45:06-04:00*%
%TF.ProjectId,beepy,62656570-792e-46b6-9963-61645f706362,rev?*%
%TF.SameCoordinates,Original*%
%TF.FileFunction,AssemblyDrawing,Top*%
%FSLAX46Y46*%
G04 Gerber Fmt 4.6, Leading zero omitted, Abs format (unit mm)*
G04 Created by KiCad (PCBNEW 8.0.4) date 2024-08-08 16:45:06*
%MOMM*%
%LPD*%
G01*
G04 APERTURE LIST*
%ADD10C,0.150000*%
%ADD11C,0.010000*%
G04 APERTURE END LIST*
D10*
X60590000Y-75840000D02*
X52590000Y-75840000D01*
X61638095Y-140954819D02*
X61638095Y-139954819D01*
X61638095Y-140431009D02*
X62209523Y-140431009D01*
X62209523Y-140954819D02*
X62209523Y-139954819D01*
X63209523Y-140954819D02*
X62638095Y-140954819D01*
X62923809Y-140954819D02*
X62923809Y-139954819D01*
X62923809Y-139954819D02*
X62828571Y-140097676D01*
X62828571Y-140097676D02*
X62733333Y-140192914D01*
X62733333Y-140192914D02*
X62638095Y-140240533D01*
X119638095Y-140954819D02*
X119638095Y-139954819D01*
X119638095Y-140431009D02*
X120209523Y-140431009D01*
X120209523Y-140954819D02*
X120209523Y-139954819D01*
X120638095Y-140050057D02*
X120685714Y-140002438D01*
X120685714Y-140002438D02*
X120780952Y-139954819D01*
X120780952Y-139954819D02*
X121019047Y-139954819D01*
X121019047Y-139954819D02*
X121114285Y-140002438D01*
X121114285Y-140002438D02*
X121161904Y-140050057D01*
X121161904Y-140050057D02*
X121209523Y-140145295D01*
X121209523Y-140145295D02*
X121209523Y-140240533D01*
X121209523Y-140240533D02*
X121161904Y-140383390D01*
X121161904Y-140383390D02*
X120590476Y-140954819D01*
X120590476Y-140954819D02*
X121209523Y-140954819D01*
D11*
%TO.C,REF\u002A\u002A*%
X61690000Y-51937500D02*
X120490000Y-51937500D01*
X61690000Y-87217500D02*
X61690000Y-51937500D01*
X61690000Y-87217500D02*
X120490000Y-87217500D01*
X120490000Y-51937500D02*
X120490000Y-87217500D01*
%TD*%
M02*
