%TF.GenerationSoftware,KiCad,Pcbnew,8.0.4*%
%TF.CreationDate,2024-08-09T22:43:33-04:00*%
%TF.ProjectId,beepy,62656570-792e-46b6-9963-61645f706362,rev?*%
%TF.SameCoordinates,Original*%
%TF.FileFunction,Drillmap*%
%TF.FilePolarity,Positive*%
%FSLAX45Y45*%
G04 Gerber Fmt 4.5, Leading zero omitted, Abs format (unit mm)*
G04 Created by KiCad (PCBNEW 8.0.4) date 2024-08-09 22:43:33*
%MOMM*%
%LPD*%
G01*
G04 APERTURE LIST*
%ADD10C,0.100000*%
%ADD11C,0.200000*%
%ADD12C,0.270000*%
G04 APERTURE END LIST*
D10*
X6854569Y-9333000D02*
G75*
G02*
X6894569Y-9292999I40001J0D01*
G01*
X9954000Y-10552432D02*
G75*
G02*
X9914000Y-10592430I-40000J2D01*
G01*
X6289000Y-7474000D02*
G75*
G02*
X6329000Y-7514000I0J-40000D01*
G01*
X5999000Y-8944000D02*
G75*
G02*
X5959000Y-8904000I0J40000D01*
G01*
X9954000Y-10552432D02*
X9954000Y-9333000D01*
X9759355Y-9292645D02*
G75*
G02*
X9709355Y-9242645I5J50005D01*
G01*
X9914000Y-9293000D02*
G75*
G02*
X9954000Y-9333000I0J-40000D01*
G01*
X9709355Y-9242645D02*
X9709711Y-9153989D01*
X8510011Y-9154711D02*
G75*
G02*
X8598000Y-9066001I88359J351D01*
G01*
X7067612Y-14314612D02*
G75*
G02*
X6942612Y-14439612I-125002J2D01*
G01*
X5409000Y-13690000D02*
X5409000Y-4790000D01*
X6942612Y-14439612D02*
X6159000Y-14440000D01*
X12059000Y-4040000D02*
X6159000Y-4040000D01*
X6329000Y-8904000D02*
G75*
G02*
X6289000Y-8944000I-40000J0D01*
G01*
X8509645Y-9242645D02*
G75*
G02*
X8459645Y-9292645I-50005J5D01*
G01*
X9621000Y-9066000D02*
X8598000Y-9066000D01*
X6854569Y-9333000D02*
X6854569Y-10552431D01*
X9621000Y-9066000D02*
G75*
G02*
X9709720Y-9153989I360J-88360D01*
G01*
X12059000Y-14440000D02*
X7796388Y-14439612D01*
X6289000Y-7474000D02*
X6000000Y-7474000D01*
X6329000Y-7514000D02*
X6329000Y-8904000D01*
X7671388Y-14314612D02*
X7067612Y-14314612D01*
X6289000Y-8944000D02*
X5999000Y-8944000D01*
X9914000Y-9293000D02*
X9759355Y-9292645D01*
X6894569Y-10592432D02*
G75*
G02*
X6854568Y-10552431I1J40002D01*
G01*
X12809000Y-13690000D02*
G75*
G02*
X12059000Y-14440000I-750000J0D01*
G01*
X12059000Y-4040000D02*
G75*
G02*
X12809000Y-4790000I0J-750000D01*
G01*
X6894569Y-10592432D02*
X9914000Y-10592431D01*
X5959000Y-7514000D02*
G75*
G02*
X6000000Y-7474000I40500J-500D01*
G01*
X5409000Y-4790000D02*
G75*
G02*
X6159000Y-4040000I750000J0D01*
G01*
X12809000Y-4790000D02*
X12809000Y-13690000D01*
X6159000Y-14440000D02*
G75*
G02*
X5409000Y-13690000I0J750000D01*
G01*
X7796388Y-14439612D02*
G75*
G02*
X7671388Y-14314612I2J125002D01*
G01*
X8510011Y-9154711D02*
X8509645Y-9242645D01*
X5959000Y-7514000D02*
X5959000Y-8904000D01*
X8459645Y-9292645D02*
X6894569Y-9293000D01*
D11*
D10*
X8787500Y-13743500D02*
X8852500Y-13808500D01*
X8852500Y-13743500D02*
X8787500Y-13808500D01*
X9365500Y-13743500D02*
X9430500Y-13808500D01*
X9430500Y-13743500D02*
X9365500Y-13808500D01*
X12501000Y-5303000D02*
G75*
G02*
X12426000Y-5303000I-37500J0D01*
G01*
X12426000Y-5303000D02*
G75*
G02*
X12501000Y-5303000I37500J0D01*
G01*
X12776000Y-5303000D02*
G75*
G02*
X12701000Y-5303000I-37500J0D01*
G01*
X12701000Y-5303000D02*
G75*
G02*
X12776000Y-5303000I37500J0D01*
G01*
X7222000Y-14086000D02*
X7222000Y-14176000D01*
X7177000Y-14131000D02*
X7267000Y-14131000D01*
X7522000Y-14086000D02*
X7522000Y-14176000D01*
X7477000Y-14131000D02*
X7567000Y-14131000D01*
D12*
X6305460Y-14145460D02*
X6305460Y-13954540D01*
X6114540Y-13954540D01*
X6114540Y-14145460D01*
X6305460Y-14145460D01*
X12105460Y-14145460D02*
X12105460Y-13954540D01*
X11914540Y-13954540D01*
X11914540Y-14145460D01*
X12105460Y-14145460D01*
D11*
X5664777Y-14756484D02*
X5664777Y-14556484D01*
X5664777Y-14556484D02*
X5712396Y-14556484D01*
X5712396Y-14556484D02*
X5740967Y-14566008D01*
X5740967Y-14566008D02*
X5760015Y-14585055D01*
X5760015Y-14585055D02*
X5769539Y-14604103D01*
X5769539Y-14604103D02*
X5779062Y-14642198D01*
X5779062Y-14642198D02*
X5779062Y-14670769D01*
X5779062Y-14670769D02*
X5769539Y-14708865D01*
X5769539Y-14708865D02*
X5760015Y-14727912D01*
X5760015Y-14727912D02*
X5740967Y-14746960D01*
X5740967Y-14746960D02*
X5712396Y-14756484D01*
X5712396Y-14756484D02*
X5664777Y-14756484D01*
X5864777Y-14756484D02*
X5864777Y-14623150D01*
X5864777Y-14661246D02*
X5874301Y-14642198D01*
X5874301Y-14642198D02*
X5883824Y-14632674D01*
X5883824Y-14632674D02*
X5902872Y-14623150D01*
X5902872Y-14623150D02*
X5921920Y-14623150D01*
X5988586Y-14756484D02*
X5988586Y-14623150D01*
X5988586Y-14556484D02*
X5979062Y-14566008D01*
X5979062Y-14566008D02*
X5988586Y-14575531D01*
X5988586Y-14575531D02*
X5998110Y-14566008D01*
X5998110Y-14566008D02*
X5988586Y-14556484D01*
X5988586Y-14556484D02*
X5988586Y-14575531D01*
X6112396Y-14756484D02*
X6093348Y-14746960D01*
X6093348Y-14746960D02*
X6083824Y-14727912D01*
X6083824Y-14727912D02*
X6083824Y-14556484D01*
X6217158Y-14756484D02*
X6198110Y-14746960D01*
X6198110Y-14746960D02*
X6188586Y-14727912D01*
X6188586Y-14727912D02*
X6188586Y-14556484D01*
X6445729Y-14756484D02*
X6445729Y-14556484D01*
X6445729Y-14556484D02*
X6512396Y-14699341D01*
X6512396Y-14699341D02*
X6579062Y-14556484D01*
X6579062Y-14556484D02*
X6579062Y-14756484D01*
X6760015Y-14756484D02*
X6760015Y-14651722D01*
X6760015Y-14651722D02*
X6750491Y-14632674D01*
X6750491Y-14632674D02*
X6731443Y-14623150D01*
X6731443Y-14623150D02*
X6693348Y-14623150D01*
X6693348Y-14623150D02*
X6674301Y-14632674D01*
X6760015Y-14746960D02*
X6740967Y-14756484D01*
X6740967Y-14756484D02*
X6693348Y-14756484D01*
X6693348Y-14756484D02*
X6674301Y-14746960D01*
X6674301Y-14746960D02*
X6664777Y-14727912D01*
X6664777Y-14727912D02*
X6664777Y-14708865D01*
X6664777Y-14708865D02*
X6674301Y-14689817D01*
X6674301Y-14689817D02*
X6693348Y-14680293D01*
X6693348Y-14680293D02*
X6740967Y-14680293D01*
X6740967Y-14680293D02*
X6760015Y-14670769D01*
X6855253Y-14623150D02*
X6855253Y-14823150D01*
X6855253Y-14632674D02*
X6874301Y-14623150D01*
X6874301Y-14623150D02*
X6912396Y-14623150D01*
X6912396Y-14623150D02*
X6931443Y-14632674D01*
X6931443Y-14632674D02*
X6940967Y-14642198D01*
X6940967Y-14642198D02*
X6950491Y-14661246D01*
X6950491Y-14661246D02*
X6950491Y-14718388D01*
X6950491Y-14718388D02*
X6940967Y-14737436D01*
X6940967Y-14737436D02*
X6931443Y-14746960D01*
X6931443Y-14746960D02*
X6912396Y-14756484D01*
X6912396Y-14756484D02*
X6874301Y-14756484D01*
X6874301Y-14756484D02*
X6855253Y-14746960D01*
X7036205Y-14737436D02*
X7045729Y-14746960D01*
X7045729Y-14746960D02*
X7036205Y-14756484D01*
X7036205Y-14756484D02*
X7026682Y-14746960D01*
X7026682Y-14746960D02*
X7036205Y-14737436D01*
X7036205Y-14737436D02*
X7036205Y-14756484D01*
X7036205Y-14632674D02*
X7045729Y-14642198D01*
X7045729Y-14642198D02*
X7036205Y-14651722D01*
X7036205Y-14651722D02*
X7026682Y-14642198D01*
X7026682Y-14642198D02*
X7036205Y-14632674D01*
X7036205Y-14632674D02*
X7036205Y-14651722D01*
D10*
X5339000Y-15052500D02*
X5404000Y-15117500D01*
X5404000Y-15052500D02*
X5339000Y-15117500D01*
D11*
X5702872Y-14976484D02*
X5721920Y-14976484D01*
X5721920Y-14976484D02*
X5740967Y-14986008D01*
X5740967Y-14986008D02*
X5750491Y-14995531D01*
X5750491Y-14995531D02*
X5760015Y-15014579D01*
X5760015Y-15014579D02*
X5769539Y-15052674D01*
X5769539Y-15052674D02*
X5769539Y-15100293D01*
X5769539Y-15100293D02*
X5760015Y-15138388D01*
X5760015Y-15138388D02*
X5750491Y-15157436D01*
X5750491Y-15157436D02*
X5740967Y-15166960D01*
X5740967Y-15166960D02*
X5721920Y-15176484D01*
X5721920Y-15176484D02*
X5702872Y-15176484D01*
X5702872Y-15176484D02*
X5683824Y-15166960D01*
X5683824Y-15166960D02*
X5674301Y-15157436D01*
X5674301Y-15157436D02*
X5664777Y-15138388D01*
X5664777Y-15138388D02*
X5655253Y-15100293D01*
X5655253Y-15100293D02*
X5655253Y-15052674D01*
X5655253Y-15052674D02*
X5664777Y-15014579D01*
X5664777Y-15014579D02*
X5674301Y-14995531D01*
X5674301Y-14995531D02*
X5683824Y-14986008D01*
X5683824Y-14986008D02*
X5702872Y-14976484D01*
X5855253Y-15157436D02*
X5864777Y-15166960D01*
X5864777Y-15166960D02*
X5855253Y-15176484D01*
X5855253Y-15176484D02*
X5845729Y-15166960D01*
X5845729Y-15166960D02*
X5855253Y-15157436D01*
X5855253Y-15157436D02*
X5855253Y-15176484D01*
X6036205Y-14976484D02*
X5998110Y-14976484D01*
X5998110Y-14976484D02*
X5979062Y-14986008D01*
X5979062Y-14986008D02*
X5969539Y-14995531D01*
X5969539Y-14995531D02*
X5950491Y-15024103D01*
X5950491Y-15024103D02*
X5940967Y-15062198D01*
X5940967Y-15062198D02*
X5940967Y-15138388D01*
X5940967Y-15138388D02*
X5950491Y-15157436D01*
X5950491Y-15157436D02*
X5960015Y-15166960D01*
X5960015Y-15166960D02*
X5979062Y-15176484D01*
X5979062Y-15176484D02*
X6017158Y-15176484D01*
X6017158Y-15176484D02*
X6036205Y-15166960D01*
X6036205Y-15166960D02*
X6045729Y-15157436D01*
X6045729Y-15157436D02*
X6055253Y-15138388D01*
X6055253Y-15138388D02*
X6055253Y-15090769D01*
X6055253Y-15090769D02*
X6045729Y-15071722D01*
X6045729Y-15071722D02*
X6036205Y-15062198D01*
X6036205Y-15062198D02*
X6017158Y-15052674D01*
X6017158Y-15052674D02*
X5979062Y-15052674D01*
X5979062Y-15052674D02*
X5960015Y-15062198D01*
X5960015Y-15062198D02*
X5950491Y-15071722D01*
X5950491Y-15071722D02*
X5940967Y-15090769D01*
X6236205Y-14976484D02*
X6140967Y-14976484D01*
X6140967Y-14976484D02*
X6131443Y-15071722D01*
X6131443Y-15071722D02*
X6140967Y-15062198D01*
X6140967Y-15062198D02*
X6160015Y-15052674D01*
X6160015Y-15052674D02*
X6207634Y-15052674D01*
X6207634Y-15052674D02*
X6226682Y-15062198D01*
X6226682Y-15062198D02*
X6236205Y-15071722D01*
X6236205Y-15071722D02*
X6245729Y-15090769D01*
X6245729Y-15090769D02*
X6245729Y-15138388D01*
X6245729Y-15138388D02*
X6236205Y-15157436D01*
X6236205Y-15157436D02*
X6226682Y-15166960D01*
X6226682Y-15166960D02*
X6207634Y-15176484D01*
X6207634Y-15176484D02*
X6160015Y-15176484D01*
X6160015Y-15176484D02*
X6140967Y-15166960D01*
X6140967Y-15166960D02*
X6131443Y-15157436D01*
X6369539Y-14976484D02*
X6388586Y-14976484D01*
X6388586Y-14976484D02*
X6407634Y-14986008D01*
X6407634Y-14986008D02*
X6417158Y-14995531D01*
X6417158Y-14995531D02*
X6426682Y-15014579D01*
X6426682Y-15014579D02*
X6436205Y-15052674D01*
X6436205Y-15052674D02*
X6436205Y-15100293D01*
X6436205Y-15100293D02*
X6426682Y-15138388D01*
X6426682Y-15138388D02*
X6417158Y-15157436D01*
X6417158Y-15157436D02*
X6407634Y-15166960D01*
X6407634Y-15166960D02*
X6388586Y-15176484D01*
X6388586Y-15176484D02*
X6369539Y-15176484D01*
X6369539Y-15176484D02*
X6350491Y-15166960D01*
X6350491Y-15166960D02*
X6340967Y-15157436D01*
X6340967Y-15157436D02*
X6331443Y-15138388D01*
X6331443Y-15138388D02*
X6321920Y-15100293D01*
X6321920Y-15100293D02*
X6321920Y-15052674D01*
X6321920Y-15052674D02*
X6331443Y-15014579D01*
X6331443Y-15014579D02*
X6340967Y-14995531D01*
X6340967Y-14995531D02*
X6350491Y-14986008D01*
X6350491Y-14986008D02*
X6369539Y-14976484D01*
X6521920Y-15176484D02*
X6521920Y-15043150D01*
X6521920Y-15062198D02*
X6531443Y-15052674D01*
X6531443Y-15052674D02*
X6550491Y-15043150D01*
X6550491Y-15043150D02*
X6579063Y-15043150D01*
X6579063Y-15043150D02*
X6598110Y-15052674D01*
X6598110Y-15052674D02*
X6607634Y-15071722D01*
X6607634Y-15071722D02*
X6607634Y-15176484D01*
X6607634Y-15071722D02*
X6617158Y-15052674D01*
X6617158Y-15052674D02*
X6636205Y-15043150D01*
X6636205Y-15043150D02*
X6664777Y-15043150D01*
X6664777Y-15043150D02*
X6683824Y-15052674D01*
X6683824Y-15052674D02*
X6693348Y-15071722D01*
X6693348Y-15071722D02*
X6693348Y-15176484D01*
X6788586Y-15176484D02*
X6788586Y-15043150D01*
X6788586Y-15062198D02*
X6798110Y-15052674D01*
X6798110Y-15052674D02*
X6817158Y-15043150D01*
X6817158Y-15043150D02*
X6845729Y-15043150D01*
X6845729Y-15043150D02*
X6864777Y-15052674D01*
X6864777Y-15052674D02*
X6874301Y-15071722D01*
X6874301Y-15071722D02*
X6874301Y-15176484D01*
X6874301Y-15071722D02*
X6883824Y-15052674D01*
X6883824Y-15052674D02*
X6902872Y-15043150D01*
X6902872Y-15043150D02*
X6931443Y-15043150D01*
X6931443Y-15043150D02*
X6950491Y-15052674D01*
X6950491Y-15052674D02*
X6960015Y-15071722D01*
X6960015Y-15071722D02*
X6960015Y-15176484D01*
X7350491Y-14966960D02*
X7179063Y-15224103D01*
X7607634Y-14976484D02*
X7626682Y-14976484D01*
X7626682Y-14976484D02*
X7645729Y-14986008D01*
X7645729Y-14986008D02*
X7655253Y-14995531D01*
X7655253Y-14995531D02*
X7664777Y-15014579D01*
X7664777Y-15014579D02*
X7674301Y-15052674D01*
X7674301Y-15052674D02*
X7674301Y-15100293D01*
X7674301Y-15100293D02*
X7664777Y-15138388D01*
X7664777Y-15138388D02*
X7655253Y-15157436D01*
X7655253Y-15157436D02*
X7645729Y-15166960D01*
X7645729Y-15166960D02*
X7626682Y-15176484D01*
X7626682Y-15176484D02*
X7607634Y-15176484D01*
X7607634Y-15176484D02*
X7588586Y-15166960D01*
X7588586Y-15166960D02*
X7579063Y-15157436D01*
X7579063Y-15157436D02*
X7569539Y-15138388D01*
X7569539Y-15138388D02*
X7560015Y-15100293D01*
X7560015Y-15100293D02*
X7560015Y-15052674D01*
X7560015Y-15052674D02*
X7569539Y-15014579D01*
X7569539Y-15014579D02*
X7579063Y-14995531D01*
X7579063Y-14995531D02*
X7588586Y-14986008D01*
X7588586Y-14986008D02*
X7607634Y-14976484D01*
X7760015Y-15157436D02*
X7769539Y-15166960D01*
X7769539Y-15166960D02*
X7760015Y-15176484D01*
X7760015Y-15176484D02*
X7750491Y-15166960D01*
X7750491Y-15166960D02*
X7760015Y-15157436D01*
X7760015Y-15157436D02*
X7760015Y-15176484D01*
X7893348Y-14976484D02*
X7912396Y-14976484D01*
X7912396Y-14976484D02*
X7931444Y-14986008D01*
X7931444Y-14986008D02*
X7940967Y-14995531D01*
X7940967Y-14995531D02*
X7950491Y-15014579D01*
X7950491Y-15014579D02*
X7960015Y-15052674D01*
X7960015Y-15052674D02*
X7960015Y-15100293D01*
X7960015Y-15100293D02*
X7950491Y-15138388D01*
X7950491Y-15138388D02*
X7940967Y-15157436D01*
X7940967Y-15157436D02*
X7931444Y-15166960D01*
X7931444Y-15166960D02*
X7912396Y-15176484D01*
X7912396Y-15176484D02*
X7893348Y-15176484D01*
X7893348Y-15176484D02*
X7874301Y-15166960D01*
X7874301Y-15166960D02*
X7864777Y-15157436D01*
X7864777Y-15157436D02*
X7855253Y-15138388D01*
X7855253Y-15138388D02*
X7845729Y-15100293D01*
X7845729Y-15100293D02*
X7845729Y-15052674D01*
X7845729Y-15052674D02*
X7855253Y-15014579D01*
X7855253Y-15014579D02*
X7864777Y-14995531D01*
X7864777Y-14995531D02*
X7874301Y-14986008D01*
X7874301Y-14986008D02*
X7893348Y-14976484D01*
X8036206Y-14995531D02*
X8045729Y-14986008D01*
X8045729Y-14986008D02*
X8064777Y-14976484D01*
X8064777Y-14976484D02*
X8112396Y-14976484D01*
X8112396Y-14976484D02*
X8131444Y-14986008D01*
X8131444Y-14986008D02*
X8140967Y-14995531D01*
X8140967Y-14995531D02*
X8150491Y-15014579D01*
X8150491Y-15014579D02*
X8150491Y-15033627D01*
X8150491Y-15033627D02*
X8140967Y-15062198D01*
X8140967Y-15062198D02*
X8026682Y-15176484D01*
X8026682Y-15176484D02*
X8150491Y-15176484D01*
X8331444Y-14976484D02*
X8236206Y-14976484D01*
X8236206Y-14976484D02*
X8226682Y-15071722D01*
X8226682Y-15071722D02*
X8236206Y-15062198D01*
X8236206Y-15062198D02*
X8255253Y-15052674D01*
X8255253Y-15052674D02*
X8302872Y-15052674D01*
X8302872Y-15052674D02*
X8321920Y-15062198D01*
X8321920Y-15062198D02*
X8331444Y-15071722D01*
X8331444Y-15071722D02*
X8340967Y-15090769D01*
X8340967Y-15090769D02*
X8340967Y-15138388D01*
X8340967Y-15138388D02*
X8331444Y-15157436D01*
X8331444Y-15157436D02*
X8321920Y-15166960D01*
X8321920Y-15166960D02*
X8302872Y-15176484D01*
X8302872Y-15176484D02*
X8255253Y-15176484D01*
X8255253Y-15176484D02*
X8236206Y-15166960D01*
X8236206Y-15166960D02*
X8226682Y-15157436D01*
X8512396Y-14976484D02*
X8474301Y-14976484D01*
X8474301Y-14976484D02*
X8455253Y-14986008D01*
X8455253Y-14986008D02*
X8445729Y-14995531D01*
X8445729Y-14995531D02*
X8426682Y-15024103D01*
X8426682Y-15024103D02*
X8417158Y-15062198D01*
X8417158Y-15062198D02*
X8417158Y-15138388D01*
X8417158Y-15138388D02*
X8426682Y-15157436D01*
X8426682Y-15157436D02*
X8436206Y-15166960D01*
X8436206Y-15166960D02*
X8455253Y-15176484D01*
X8455253Y-15176484D02*
X8493349Y-15176484D01*
X8493349Y-15176484D02*
X8512396Y-15166960D01*
X8512396Y-15166960D02*
X8521920Y-15157436D01*
X8521920Y-15157436D02*
X8531444Y-15138388D01*
X8531444Y-15138388D02*
X8531444Y-15090769D01*
X8531444Y-15090769D02*
X8521920Y-15071722D01*
X8521920Y-15071722D02*
X8512396Y-15062198D01*
X8512396Y-15062198D02*
X8493349Y-15052674D01*
X8493349Y-15052674D02*
X8455253Y-15052674D01*
X8455253Y-15052674D02*
X8436206Y-15062198D01*
X8436206Y-15062198D02*
X8426682Y-15071722D01*
X8426682Y-15071722D02*
X8417158Y-15090769D01*
X8607634Y-14976484D02*
X8607634Y-15014579D01*
X8683825Y-14976484D02*
X8683825Y-15014579D01*
X8979063Y-15252674D02*
X8969539Y-15243150D01*
X8969539Y-15243150D02*
X8950491Y-15214579D01*
X8950491Y-15214579D02*
X8940968Y-15195531D01*
X8940968Y-15195531D02*
X8931444Y-15166960D01*
X8931444Y-15166960D02*
X8921920Y-15119341D01*
X8921920Y-15119341D02*
X8921920Y-15081246D01*
X8921920Y-15081246D02*
X8931444Y-15033627D01*
X8931444Y-15033627D02*
X8940968Y-15005055D01*
X8940968Y-15005055D02*
X8950491Y-14986008D01*
X8950491Y-14986008D02*
X8969539Y-14957436D01*
X8969539Y-14957436D02*
X8979063Y-14947912D01*
X9045730Y-14995531D02*
X9055253Y-14986008D01*
X9055253Y-14986008D02*
X9074301Y-14976484D01*
X9074301Y-14976484D02*
X9121920Y-14976484D01*
X9121920Y-14976484D02*
X9140968Y-14986008D01*
X9140968Y-14986008D02*
X9150491Y-14995531D01*
X9150491Y-14995531D02*
X9160015Y-15014579D01*
X9160015Y-15014579D02*
X9160015Y-15033627D01*
X9160015Y-15033627D02*
X9150491Y-15062198D01*
X9150491Y-15062198D02*
X9036206Y-15176484D01*
X9036206Y-15176484D02*
X9160015Y-15176484D01*
X9398111Y-15176484D02*
X9398111Y-14976484D01*
X9483825Y-15176484D02*
X9483825Y-15071722D01*
X9483825Y-15071722D02*
X9474301Y-15052674D01*
X9474301Y-15052674D02*
X9455253Y-15043150D01*
X9455253Y-15043150D02*
X9426682Y-15043150D01*
X9426682Y-15043150D02*
X9407634Y-15052674D01*
X9407634Y-15052674D02*
X9398111Y-15062198D01*
X9607634Y-15176484D02*
X9588587Y-15166960D01*
X9588587Y-15166960D02*
X9579063Y-15157436D01*
X9579063Y-15157436D02*
X9569539Y-15138388D01*
X9569539Y-15138388D02*
X9569539Y-15081246D01*
X9569539Y-15081246D02*
X9579063Y-15062198D01*
X9579063Y-15062198D02*
X9588587Y-15052674D01*
X9588587Y-15052674D02*
X9607634Y-15043150D01*
X9607634Y-15043150D02*
X9636206Y-15043150D01*
X9636206Y-15043150D02*
X9655253Y-15052674D01*
X9655253Y-15052674D02*
X9664777Y-15062198D01*
X9664777Y-15062198D02*
X9674301Y-15081246D01*
X9674301Y-15081246D02*
X9674301Y-15138388D01*
X9674301Y-15138388D02*
X9664777Y-15157436D01*
X9664777Y-15157436D02*
X9655253Y-15166960D01*
X9655253Y-15166960D02*
X9636206Y-15176484D01*
X9636206Y-15176484D02*
X9607634Y-15176484D01*
X9788587Y-15176484D02*
X9769539Y-15166960D01*
X9769539Y-15166960D02*
X9760015Y-15147912D01*
X9760015Y-15147912D02*
X9760015Y-14976484D01*
X9940968Y-15166960D02*
X9921920Y-15176484D01*
X9921920Y-15176484D02*
X9883825Y-15176484D01*
X9883825Y-15176484D02*
X9864777Y-15166960D01*
X9864777Y-15166960D02*
X9855253Y-15147912D01*
X9855253Y-15147912D02*
X9855253Y-15071722D01*
X9855253Y-15071722D02*
X9864777Y-15052674D01*
X9864777Y-15052674D02*
X9883825Y-15043150D01*
X9883825Y-15043150D02*
X9921920Y-15043150D01*
X9921920Y-15043150D02*
X9940968Y-15052674D01*
X9940968Y-15052674D02*
X9950492Y-15071722D01*
X9950492Y-15071722D02*
X9950492Y-15090769D01*
X9950492Y-15090769D02*
X9855253Y-15109817D01*
X10026682Y-15166960D02*
X10045730Y-15176484D01*
X10045730Y-15176484D02*
X10083825Y-15176484D01*
X10083825Y-15176484D02*
X10102873Y-15166960D01*
X10102873Y-15166960D02*
X10112396Y-15147912D01*
X10112396Y-15147912D02*
X10112396Y-15138388D01*
X10112396Y-15138388D02*
X10102873Y-15119341D01*
X10102873Y-15119341D02*
X10083825Y-15109817D01*
X10083825Y-15109817D02*
X10055253Y-15109817D01*
X10055253Y-15109817D02*
X10036206Y-15100293D01*
X10036206Y-15100293D02*
X10026682Y-15081246D01*
X10026682Y-15081246D02*
X10026682Y-15071722D01*
X10026682Y-15071722D02*
X10036206Y-15052674D01*
X10036206Y-15052674D02*
X10055253Y-15043150D01*
X10055253Y-15043150D02*
X10083825Y-15043150D01*
X10083825Y-15043150D02*
X10102873Y-15052674D01*
X10179063Y-15252674D02*
X10188587Y-15243150D01*
X10188587Y-15243150D02*
X10207634Y-15214579D01*
X10207634Y-15214579D02*
X10217158Y-15195531D01*
X10217158Y-15195531D02*
X10226682Y-15166960D01*
X10226682Y-15166960D02*
X10236206Y-15119341D01*
X10236206Y-15119341D02*
X10236206Y-15081246D01*
X10236206Y-15081246D02*
X10226682Y-15033627D01*
X10226682Y-15033627D02*
X10217158Y-15005055D01*
X10217158Y-15005055D02*
X10207634Y-14986008D01*
X10207634Y-14986008D02*
X10188587Y-14957436D01*
X10188587Y-14957436D02*
X10179063Y-14947912D01*
X10540968Y-15252674D02*
X10531444Y-15243150D01*
X10531444Y-15243150D02*
X10512396Y-15214579D01*
X10512396Y-15214579D02*
X10502873Y-15195531D01*
X10502873Y-15195531D02*
X10493349Y-15166960D01*
X10493349Y-15166960D02*
X10483825Y-15119341D01*
X10483825Y-15119341D02*
X10483825Y-15081246D01*
X10483825Y-15081246D02*
X10493349Y-15033627D01*
X10493349Y-15033627D02*
X10502873Y-15005055D01*
X10502873Y-15005055D02*
X10512396Y-14986008D01*
X10512396Y-14986008D02*
X10531444Y-14957436D01*
X10531444Y-14957436D02*
X10540968Y-14947912D01*
X10617158Y-15043150D02*
X10617158Y-15176484D01*
X10617158Y-15062198D02*
X10626682Y-15052674D01*
X10626682Y-15052674D02*
X10645730Y-15043150D01*
X10645730Y-15043150D02*
X10674301Y-15043150D01*
X10674301Y-15043150D02*
X10693349Y-15052674D01*
X10693349Y-15052674D02*
X10702873Y-15071722D01*
X10702873Y-15071722D02*
X10702873Y-15176484D01*
X10826682Y-15176484D02*
X10807634Y-15166960D01*
X10807634Y-15166960D02*
X10798111Y-15157436D01*
X10798111Y-15157436D02*
X10788587Y-15138388D01*
X10788587Y-15138388D02*
X10788587Y-15081246D01*
X10788587Y-15081246D02*
X10798111Y-15062198D01*
X10798111Y-15062198D02*
X10807634Y-15052674D01*
X10807634Y-15052674D02*
X10826682Y-15043150D01*
X10826682Y-15043150D02*
X10855254Y-15043150D01*
X10855254Y-15043150D02*
X10874301Y-15052674D01*
X10874301Y-15052674D02*
X10883825Y-15062198D01*
X10883825Y-15062198D02*
X10893349Y-15081246D01*
X10893349Y-15081246D02*
X10893349Y-15138388D01*
X10893349Y-15138388D02*
X10883825Y-15157436D01*
X10883825Y-15157436D02*
X10874301Y-15166960D01*
X10874301Y-15166960D02*
X10855254Y-15176484D01*
X10855254Y-15176484D02*
X10826682Y-15176484D01*
X10950492Y-15043150D02*
X11026682Y-15043150D01*
X10979063Y-14976484D02*
X10979063Y-15147912D01*
X10979063Y-15147912D02*
X10988587Y-15166960D01*
X10988587Y-15166960D02*
X11007634Y-15176484D01*
X11007634Y-15176484D02*
X11026682Y-15176484D01*
X11245730Y-15043150D02*
X11245730Y-15243150D01*
X11245730Y-15052674D02*
X11264777Y-15043150D01*
X11264777Y-15043150D02*
X11302873Y-15043150D01*
X11302873Y-15043150D02*
X11321920Y-15052674D01*
X11321920Y-15052674D02*
X11331444Y-15062198D01*
X11331444Y-15062198D02*
X11340968Y-15081246D01*
X11340968Y-15081246D02*
X11340968Y-15138388D01*
X11340968Y-15138388D02*
X11331444Y-15157436D01*
X11331444Y-15157436D02*
X11321920Y-15166960D01*
X11321920Y-15166960D02*
X11302873Y-15176484D01*
X11302873Y-15176484D02*
X11264777Y-15176484D01*
X11264777Y-15176484D02*
X11245730Y-15166960D01*
X11455253Y-15176484D02*
X11436206Y-15166960D01*
X11436206Y-15166960D02*
X11426682Y-15147912D01*
X11426682Y-15147912D02*
X11426682Y-14976484D01*
X11617158Y-15176484D02*
X11617158Y-15071722D01*
X11617158Y-15071722D02*
X11607634Y-15052674D01*
X11607634Y-15052674D02*
X11588587Y-15043150D01*
X11588587Y-15043150D02*
X11550492Y-15043150D01*
X11550492Y-15043150D02*
X11531444Y-15052674D01*
X11617158Y-15166960D02*
X11598111Y-15176484D01*
X11598111Y-15176484D02*
X11550492Y-15176484D01*
X11550492Y-15176484D02*
X11531444Y-15166960D01*
X11531444Y-15166960D02*
X11521920Y-15147912D01*
X11521920Y-15147912D02*
X11521920Y-15128865D01*
X11521920Y-15128865D02*
X11531444Y-15109817D01*
X11531444Y-15109817D02*
X11550492Y-15100293D01*
X11550492Y-15100293D02*
X11598111Y-15100293D01*
X11598111Y-15100293D02*
X11617158Y-15090769D01*
X11683825Y-15043150D02*
X11760015Y-15043150D01*
X11712396Y-14976484D02*
X11712396Y-15147912D01*
X11712396Y-15147912D02*
X11721920Y-15166960D01*
X11721920Y-15166960D02*
X11740968Y-15176484D01*
X11740968Y-15176484D02*
X11760015Y-15176484D01*
X11902873Y-15166960D02*
X11883825Y-15176484D01*
X11883825Y-15176484D02*
X11845730Y-15176484D01*
X11845730Y-15176484D02*
X11826682Y-15166960D01*
X11826682Y-15166960D02*
X11817158Y-15147912D01*
X11817158Y-15147912D02*
X11817158Y-15071722D01*
X11817158Y-15071722D02*
X11826682Y-15052674D01*
X11826682Y-15052674D02*
X11845730Y-15043150D01*
X11845730Y-15043150D02*
X11883825Y-15043150D01*
X11883825Y-15043150D02*
X11902873Y-15052674D01*
X11902873Y-15052674D02*
X11912396Y-15071722D01*
X11912396Y-15071722D02*
X11912396Y-15090769D01*
X11912396Y-15090769D02*
X11817158Y-15109817D01*
X12083825Y-15176484D02*
X12083825Y-14976484D01*
X12083825Y-15166960D02*
X12064777Y-15176484D01*
X12064777Y-15176484D02*
X12026682Y-15176484D01*
X12026682Y-15176484D02*
X12007634Y-15166960D01*
X12007634Y-15166960D02*
X11998111Y-15157436D01*
X11998111Y-15157436D02*
X11988587Y-15138388D01*
X11988587Y-15138388D02*
X11988587Y-15081246D01*
X11988587Y-15081246D02*
X11998111Y-15062198D01*
X11998111Y-15062198D02*
X12007634Y-15052674D01*
X12007634Y-15052674D02*
X12026682Y-15043150D01*
X12026682Y-15043150D02*
X12064777Y-15043150D01*
X12064777Y-15043150D02*
X12083825Y-15052674D01*
X12160015Y-15252674D02*
X12169539Y-15243150D01*
X12169539Y-15243150D02*
X12188587Y-15214579D01*
X12188587Y-15214579D02*
X12198111Y-15195531D01*
X12198111Y-15195531D02*
X12207634Y-15166960D01*
X12207634Y-15166960D02*
X12217158Y-15119341D01*
X12217158Y-15119341D02*
X12217158Y-15081246D01*
X12217158Y-15081246D02*
X12207634Y-15033627D01*
X12207634Y-15033627D02*
X12198111Y-15005055D01*
X12198111Y-15005055D02*
X12188587Y-14986008D01*
X12188587Y-14986008D02*
X12169539Y-14957436D01*
X12169539Y-14957436D02*
X12160015Y-14947912D01*
D10*
X5404000Y-15349000D02*
G75*
G02*
X5329000Y-15349000I-37500J0D01*
G01*
X5329000Y-15349000D02*
G75*
G02*
X5404000Y-15349000I37500J0D01*
G01*
D11*
X5702872Y-15240484D02*
X5721920Y-15240484D01*
X5721920Y-15240484D02*
X5740967Y-15250008D01*
X5740967Y-15250008D02*
X5750491Y-15259531D01*
X5750491Y-15259531D02*
X5760015Y-15278579D01*
X5760015Y-15278579D02*
X5769539Y-15316674D01*
X5769539Y-15316674D02*
X5769539Y-15364293D01*
X5769539Y-15364293D02*
X5760015Y-15402388D01*
X5760015Y-15402388D02*
X5750491Y-15421436D01*
X5750491Y-15421436D02*
X5740967Y-15430960D01*
X5740967Y-15430960D02*
X5721920Y-15440484D01*
X5721920Y-15440484D02*
X5702872Y-15440484D01*
X5702872Y-15440484D02*
X5683824Y-15430960D01*
X5683824Y-15430960D02*
X5674301Y-15421436D01*
X5674301Y-15421436D02*
X5664777Y-15402388D01*
X5664777Y-15402388D02*
X5655253Y-15364293D01*
X5655253Y-15364293D02*
X5655253Y-15316674D01*
X5655253Y-15316674D02*
X5664777Y-15278579D01*
X5664777Y-15278579D02*
X5674301Y-15259531D01*
X5674301Y-15259531D02*
X5683824Y-15250008D01*
X5683824Y-15250008D02*
X5702872Y-15240484D01*
X5855253Y-15421436D02*
X5864777Y-15430960D01*
X5864777Y-15430960D02*
X5855253Y-15440484D01*
X5855253Y-15440484D02*
X5845729Y-15430960D01*
X5845729Y-15430960D02*
X5855253Y-15421436D01*
X5855253Y-15421436D02*
X5855253Y-15440484D01*
X5931443Y-15240484D02*
X6064777Y-15240484D01*
X6064777Y-15240484D02*
X5979062Y-15440484D01*
X6236205Y-15240484D02*
X6140967Y-15240484D01*
X6140967Y-15240484D02*
X6131443Y-15335722D01*
X6131443Y-15335722D02*
X6140967Y-15326198D01*
X6140967Y-15326198D02*
X6160015Y-15316674D01*
X6160015Y-15316674D02*
X6207634Y-15316674D01*
X6207634Y-15316674D02*
X6226682Y-15326198D01*
X6226682Y-15326198D02*
X6236205Y-15335722D01*
X6236205Y-15335722D02*
X6245729Y-15354769D01*
X6245729Y-15354769D02*
X6245729Y-15402388D01*
X6245729Y-15402388D02*
X6236205Y-15421436D01*
X6236205Y-15421436D02*
X6226682Y-15430960D01*
X6226682Y-15430960D02*
X6207634Y-15440484D01*
X6207634Y-15440484D02*
X6160015Y-15440484D01*
X6160015Y-15440484D02*
X6140967Y-15430960D01*
X6140967Y-15430960D02*
X6131443Y-15421436D01*
X6369539Y-15240484D02*
X6388586Y-15240484D01*
X6388586Y-15240484D02*
X6407634Y-15250008D01*
X6407634Y-15250008D02*
X6417158Y-15259531D01*
X6417158Y-15259531D02*
X6426682Y-15278579D01*
X6426682Y-15278579D02*
X6436205Y-15316674D01*
X6436205Y-15316674D02*
X6436205Y-15364293D01*
X6436205Y-15364293D02*
X6426682Y-15402388D01*
X6426682Y-15402388D02*
X6417158Y-15421436D01*
X6417158Y-15421436D02*
X6407634Y-15430960D01*
X6407634Y-15430960D02*
X6388586Y-15440484D01*
X6388586Y-15440484D02*
X6369539Y-15440484D01*
X6369539Y-15440484D02*
X6350491Y-15430960D01*
X6350491Y-15430960D02*
X6340967Y-15421436D01*
X6340967Y-15421436D02*
X6331443Y-15402388D01*
X6331443Y-15402388D02*
X6321920Y-15364293D01*
X6321920Y-15364293D02*
X6321920Y-15316674D01*
X6321920Y-15316674D02*
X6331443Y-15278579D01*
X6331443Y-15278579D02*
X6340967Y-15259531D01*
X6340967Y-15259531D02*
X6350491Y-15250008D01*
X6350491Y-15250008D02*
X6369539Y-15240484D01*
X6521920Y-15440484D02*
X6521920Y-15307150D01*
X6521920Y-15326198D02*
X6531443Y-15316674D01*
X6531443Y-15316674D02*
X6550491Y-15307150D01*
X6550491Y-15307150D02*
X6579063Y-15307150D01*
X6579063Y-15307150D02*
X6598110Y-15316674D01*
X6598110Y-15316674D02*
X6607634Y-15335722D01*
X6607634Y-15335722D02*
X6607634Y-15440484D01*
X6607634Y-15335722D02*
X6617158Y-15316674D01*
X6617158Y-15316674D02*
X6636205Y-15307150D01*
X6636205Y-15307150D02*
X6664777Y-15307150D01*
X6664777Y-15307150D02*
X6683824Y-15316674D01*
X6683824Y-15316674D02*
X6693348Y-15335722D01*
X6693348Y-15335722D02*
X6693348Y-15440484D01*
X6788586Y-15440484D02*
X6788586Y-15307150D01*
X6788586Y-15326198D02*
X6798110Y-15316674D01*
X6798110Y-15316674D02*
X6817158Y-15307150D01*
X6817158Y-15307150D02*
X6845729Y-15307150D01*
X6845729Y-15307150D02*
X6864777Y-15316674D01*
X6864777Y-15316674D02*
X6874301Y-15335722D01*
X6874301Y-15335722D02*
X6874301Y-15440484D01*
X6874301Y-15335722D02*
X6883824Y-15316674D01*
X6883824Y-15316674D02*
X6902872Y-15307150D01*
X6902872Y-15307150D02*
X6931443Y-15307150D01*
X6931443Y-15307150D02*
X6950491Y-15316674D01*
X6950491Y-15316674D02*
X6960015Y-15335722D01*
X6960015Y-15335722D02*
X6960015Y-15440484D01*
X7350491Y-15230960D02*
X7179063Y-15488103D01*
X7607634Y-15240484D02*
X7626682Y-15240484D01*
X7626682Y-15240484D02*
X7645729Y-15250008D01*
X7645729Y-15250008D02*
X7655253Y-15259531D01*
X7655253Y-15259531D02*
X7664777Y-15278579D01*
X7664777Y-15278579D02*
X7674301Y-15316674D01*
X7674301Y-15316674D02*
X7674301Y-15364293D01*
X7674301Y-15364293D02*
X7664777Y-15402388D01*
X7664777Y-15402388D02*
X7655253Y-15421436D01*
X7655253Y-15421436D02*
X7645729Y-15430960D01*
X7645729Y-15430960D02*
X7626682Y-15440484D01*
X7626682Y-15440484D02*
X7607634Y-15440484D01*
X7607634Y-15440484D02*
X7588586Y-15430960D01*
X7588586Y-15430960D02*
X7579063Y-15421436D01*
X7579063Y-15421436D02*
X7569539Y-15402388D01*
X7569539Y-15402388D02*
X7560015Y-15364293D01*
X7560015Y-15364293D02*
X7560015Y-15316674D01*
X7560015Y-15316674D02*
X7569539Y-15278579D01*
X7569539Y-15278579D02*
X7579063Y-15259531D01*
X7579063Y-15259531D02*
X7588586Y-15250008D01*
X7588586Y-15250008D02*
X7607634Y-15240484D01*
X7760015Y-15421436D02*
X7769539Y-15430960D01*
X7769539Y-15430960D02*
X7760015Y-15440484D01*
X7760015Y-15440484D02*
X7750491Y-15430960D01*
X7750491Y-15430960D02*
X7760015Y-15421436D01*
X7760015Y-15421436D02*
X7760015Y-15440484D01*
X7893348Y-15240484D02*
X7912396Y-15240484D01*
X7912396Y-15240484D02*
X7931444Y-15250008D01*
X7931444Y-15250008D02*
X7940967Y-15259531D01*
X7940967Y-15259531D02*
X7950491Y-15278579D01*
X7950491Y-15278579D02*
X7960015Y-15316674D01*
X7960015Y-15316674D02*
X7960015Y-15364293D01*
X7960015Y-15364293D02*
X7950491Y-15402388D01*
X7950491Y-15402388D02*
X7940967Y-15421436D01*
X7940967Y-15421436D02*
X7931444Y-15430960D01*
X7931444Y-15430960D02*
X7912396Y-15440484D01*
X7912396Y-15440484D02*
X7893348Y-15440484D01*
X7893348Y-15440484D02*
X7874301Y-15430960D01*
X7874301Y-15430960D02*
X7864777Y-15421436D01*
X7864777Y-15421436D02*
X7855253Y-15402388D01*
X7855253Y-15402388D02*
X7845729Y-15364293D01*
X7845729Y-15364293D02*
X7845729Y-15316674D01*
X7845729Y-15316674D02*
X7855253Y-15278579D01*
X7855253Y-15278579D02*
X7864777Y-15259531D01*
X7864777Y-15259531D02*
X7874301Y-15250008D01*
X7874301Y-15250008D02*
X7893348Y-15240484D01*
X8036206Y-15259531D02*
X8045729Y-15250008D01*
X8045729Y-15250008D02*
X8064777Y-15240484D01*
X8064777Y-15240484D02*
X8112396Y-15240484D01*
X8112396Y-15240484D02*
X8131444Y-15250008D01*
X8131444Y-15250008D02*
X8140967Y-15259531D01*
X8140967Y-15259531D02*
X8150491Y-15278579D01*
X8150491Y-15278579D02*
X8150491Y-15297627D01*
X8150491Y-15297627D02*
X8140967Y-15326198D01*
X8140967Y-15326198D02*
X8026682Y-15440484D01*
X8026682Y-15440484D02*
X8150491Y-15440484D01*
X8245729Y-15440484D02*
X8283825Y-15440484D01*
X8283825Y-15440484D02*
X8302872Y-15430960D01*
X8302872Y-15430960D02*
X8312396Y-15421436D01*
X8312396Y-15421436D02*
X8331444Y-15392865D01*
X8331444Y-15392865D02*
X8340967Y-15354769D01*
X8340967Y-15354769D02*
X8340967Y-15278579D01*
X8340967Y-15278579D02*
X8331444Y-15259531D01*
X8331444Y-15259531D02*
X8321920Y-15250008D01*
X8321920Y-15250008D02*
X8302872Y-15240484D01*
X8302872Y-15240484D02*
X8264777Y-15240484D01*
X8264777Y-15240484D02*
X8245729Y-15250008D01*
X8245729Y-15250008D02*
X8236206Y-15259531D01*
X8236206Y-15259531D02*
X8226682Y-15278579D01*
X8226682Y-15278579D02*
X8226682Y-15326198D01*
X8226682Y-15326198D02*
X8236206Y-15345246D01*
X8236206Y-15345246D02*
X8245729Y-15354769D01*
X8245729Y-15354769D02*
X8264777Y-15364293D01*
X8264777Y-15364293D02*
X8302872Y-15364293D01*
X8302872Y-15364293D02*
X8321920Y-15354769D01*
X8321920Y-15354769D02*
X8331444Y-15345246D01*
X8331444Y-15345246D02*
X8340967Y-15326198D01*
X8521920Y-15240484D02*
X8426682Y-15240484D01*
X8426682Y-15240484D02*
X8417158Y-15335722D01*
X8417158Y-15335722D02*
X8426682Y-15326198D01*
X8426682Y-15326198D02*
X8445729Y-15316674D01*
X8445729Y-15316674D02*
X8493349Y-15316674D01*
X8493349Y-15316674D02*
X8512396Y-15326198D01*
X8512396Y-15326198D02*
X8521920Y-15335722D01*
X8521920Y-15335722D02*
X8531444Y-15354769D01*
X8531444Y-15354769D02*
X8531444Y-15402388D01*
X8531444Y-15402388D02*
X8521920Y-15421436D01*
X8521920Y-15421436D02*
X8512396Y-15430960D01*
X8512396Y-15430960D02*
X8493349Y-15440484D01*
X8493349Y-15440484D02*
X8445729Y-15440484D01*
X8445729Y-15440484D02*
X8426682Y-15430960D01*
X8426682Y-15430960D02*
X8417158Y-15421436D01*
X8607634Y-15240484D02*
X8607634Y-15278579D01*
X8683825Y-15240484D02*
X8683825Y-15278579D01*
X8979063Y-15516674D02*
X8969539Y-15507150D01*
X8969539Y-15507150D02*
X8950491Y-15478579D01*
X8950491Y-15478579D02*
X8940968Y-15459531D01*
X8940968Y-15459531D02*
X8931444Y-15430960D01*
X8931444Y-15430960D02*
X8921920Y-15383341D01*
X8921920Y-15383341D02*
X8921920Y-15345246D01*
X8921920Y-15345246D02*
X8931444Y-15297627D01*
X8931444Y-15297627D02*
X8940968Y-15269055D01*
X8940968Y-15269055D02*
X8950491Y-15250008D01*
X8950491Y-15250008D02*
X8969539Y-15221436D01*
X8969539Y-15221436D02*
X8979063Y-15211912D01*
X9045730Y-15259531D02*
X9055253Y-15250008D01*
X9055253Y-15250008D02*
X9074301Y-15240484D01*
X9074301Y-15240484D02*
X9121920Y-15240484D01*
X9121920Y-15240484D02*
X9140968Y-15250008D01*
X9140968Y-15250008D02*
X9150491Y-15259531D01*
X9150491Y-15259531D02*
X9160015Y-15278579D01*
X9160015Y-15278579D02*
X9160015Y-15297627D01*
X9160015Y-15297627D02*
X9150491Y-15326198D01*
X9150491Y-15326198D02*
X9036206Y-15440484D01*
X9036206Y-15440484D02*
X9160015Y-15440484D01*
X9398111Y-15440484D02*
X9398111Y-15240484D01*
X9483825Y-15440484D02*
X9483825Y-15335722D01*
X9483825Y-15335722D02*
X9474301Y-15316674D01*
X9474301Y-15316674D02*
X9455253Y-15307150D01*
X9455253Y-15307150D02*
X9426682Y-15307150D01*
X9426682Y-15307150D02*
X9407634Y-15316674D01*
X9407634Y-15316674D02*
X9398111Y-15326198D01*
X9607634Y-15440484D02*
X9588587Y-15430960D01*
X9588587Y-15430960D02*
X9579063Y-15421436D01*
X9579063Y-15421436D02*
X9569539Y-15402388D01*
X9569539Y-15402388D02*
X9569539Y-15345246D01*
X9569539Y-15345246D02*
X9579063Y-15326198D01*
X9579063Y-15326198D02*
X9588587Y-15316674D01*
X9588587Y-15316674D02*
X9607634Y-15307150D01*
X9607634Y-15307150D02*
X9636206Y-15307150D01*
X9636206Y-15307150D02*
X9655253Y-15316674D01*
X9655253Y-15316674D02*
X9664777Y-15326198D01*
X9664777Y-15326198D02*
X9674301Y-15345246D01*
X9674301Y-15345246D02*
X9674301Y-15402388D01*
X9674301Y-15402388D02*
X9664777Y-15421436D01*
X9664777Y-15421436D02*
X9655253Y-15430960D01*
X9655253Y-15430960D02*
X9636206Y-15440484D01*
X9636206Y-15440484D02*
X9607634Y-15440484D01*
X9788587Y-15440484D02*
X9769539Y-15430960D01*
X9769539Y-15430960D02*
X9760015Y-15411912D01*
X9760015Y-15411912D02*
X9760015Y-15240484D01*
X9940968Y-15430960D02*
X9921920Y-15440484D01*
X9921920Y-15440484D02*
X9883825Y-15440484D01*
X9883825Y-15440484D02*
X9864777Y-15430960D01*
X9864777Y-15430960D02*
X9855253Y-15411912D01*
X9855253Y-15411912D02*
X9855253Y-15335722D01*
X9855253Y-15335722D02*
X9864777Y-15316674D01*
X9864777Y-15316674D02*
X9883825Y-15307150D01*
X9883825Y-15307150D02*
X9921920Y-15307150D01*
X9921920Y-15307150D02*
X9940968Y-15316674D01*
X9940968Y-15316674D02*
X9950492Y-15335722D01*
X9950492Y-15335722D02*
X9950492Y-15354769D01*
X9950492Y-15354769D02*
X9855253Y-15373817D01*
X10026682Y-15430960D02*
X10045730Y-15440484D01*
X10045730Y-15440484D02*
X10083825Y-15440484D01*
X10083825Y-15440484D02*
X10102873Y-15430960D01*
X10102873Y-15430960D02*
X10112396Y-15411912D01*
X10112396Y-15411912D02*
X10112396Y-15402388D01*
X10112396Y-15402388D02*
X10102873Y-15383341D01*
X10102873Y-15383341D02*
X10083825Y-15373817D01*
X10083825Y-15373817D02*
X10055253Y-15373817D01*
X10055253Y-15373817D02*
X10036206Y-15364293D01*
X10036206Y-15364293D02*
X10026682Y-15345246D01*
X10026682Y-15345246D02*
X10026682Y-15335722D01*
X10026682Y-15335722D02*
X10036206Y-15316674D01*
X10036206Y-15316674D02*
X10055253Y-15307150D01*
X10055253Y-15307150D02*
X10083825Y-15307150D01*
X10083825Y-15307150D02*
X10102873Y-15316674D01*
X10179063Y-15516674D02*
X10188587Y-15507150D01*
X10188587Y-15507150D02*
X10207634Y-15478579D01*
X10207634Y-15478579D02*
X10217158Y-15459531D01*
X10217158Y-15459531D02*
X10226682Y-15430960D01*
X10226682Y-15430960D02*
X10236206Y-15383341D01*
X10236206Y-15383341D02*
X10236206Y-15345246D01*
X10236206Y-15345246D02*
X10226682Y-15297627D01*
X10226682Y-15297627D02*
X10217158Y-15269055D01*
X10217158Y-15269055D02*
X10207634Y-15250008D01*
X10207634Y-15250008D02*
X10188587Y-15221436D01*
X10188587Y-15221436D02*
X10179063Y-15211912D01*
X10540968Y-15516674D02*
X10531444Y-15507150D01*
X10531444Y-15507150D02*
X10512396Y-15478579D01*
X10512396Y-15478579D02*
X10502873Y-15459531D01*
X10502873Y-15459531D02*
X10493349Y-15430960D01*
X10493349Y-15430960D02*
X10483825Y-15383341D01*
X10483825Y-15383341D02*
X10483825Y-15345246D01*
X10483825Y-15345246D02*
X10493349Y-15297627D01*
X10493349Y-15297627D02*
X10502873Y-15269055D01*
X10502873Y-15269055D02*
X10512396Y-15250008D01*
X10512396Y-15250008D02*
X10531444Y-15221436D01*
X10531444Y-15221436D02*
X10540968Y-15211912D01*
X10617158Y-15307150D02*
X10617158Y-15440484D01*
X10617158Y-15326198D02*
X10626682Y-15316674D01*
X10626682Y-15316674D02*
X10645730Y-15307150D01*
X10645730Y-15307150D02*
X10674301Y-15307150D01*
X10674301Y-15307150D02*
X10693349Y-15316674D01*
X10693349Y-15316674D02*
X10702873Y-15335722D01*
X10702873Y-15335722D02*
X10702873Y-15440484D01*
X10826682Y-15440484D02*
X10807634Y-15430960D01*
X10807634Y-15430960D02*
X10798111Y-15421436D01*
X10798111Y-15421436D02*
X10788587Y-15402388D01*
X10788587Y-15402388D02*
X10788587Y-15345246D01*
X10788587Y-15345246D02*
X10798111Y-15326198D01*
X10798111Y-15326198D02*
X10807634Y-15316674D01*
X10807634Y-15316674D02*
X10826682Y-15307150D01*
X10826682Y-15307150D02*
X10855254Y-15307150D01*
X10855254Y-15307150D02*
X10874301Y-15316674D01*
X10874301Y-15316674D02*
X10883825Y-15326198D01*
X10883825Y-15326198D02*
X10893349Y-15345246D01*
X10893349Y-15345246D02*
X10893349Y-15402388D01*
X10893349Y-15402388D02*
X10883825Y-15421436D01*
X10883825Y-15421436D02*
X10874301Y-15430960D01*
X10874301Y-15430960D02*
X10855254Y-15440484D01*
X10855254Y-15440484D02*
X10826682Y-15440484D01*
X10950492Y-15307150D02*
X11026682Y-15307150D01*
X10979063Y-15240484D02*
X10979063Y-15411912D01*
X10979063Y-15411912D02*
X10988587Y-15430960D01*
X10988587Y-15430960D02*
X11007634Y-15440484D01*
X11007634Y-15440484D02*
X11026682Y-15440484D01*
X11245730Y-15307150D02*
X11245730Y-15507150D01*
X11245730Y-15316674D02*
X11264777Y-15307150D01*
X11264777Y-15307150D02*
X11302873Y-15307150D01*
X11302873Y-15307150D02*
X11321920Y-15316674D01*
X11321920Y-15316674D02*
X11331444Y-15326198D01*
X11331444Y-15326198D02*
X11340968Y-15345246D01*
X11340968Y-15345246D02*
X11340968Y-15402388D01*
X11340968Y-15402388D02*
X11331444Y-15421436D01*
X11331444Y-15421436D02*
X11321920Y-15430960D01*
X11321920Y-15430960D02*
X11302873Y-15440484D01*
X11302873Y-15440484D02*
X11264777Y-15440484D01*
X11264777Y-15440484D02*
X11245730Y-15430960D01*
X11455253Y-15440484D02*
X11436206Y-15430960D01*
X11436206Y-15430960D02*
X11426682Y-15411912D01*
X11426682Y-15411912D02*
X11426682Y-15240484D01*
X11617158Y-15440484D02*
X11617158Y-15335722D01*
X11617158Y-15335722D02*
X11607634Y-15316674D01*
X11607634Y-15316674D02*
X11588587Y-15307150D01*
X11588587Y-15307150D02*
X11550492Y-15307150D01*
X11550492Y-15307150D02*
X11531444Y-15316674D01*
X11617158Y-15430960D02*
X11598111Y-15440484D01*
X11598111Y-15440484D02*
X11550492Y-15440484D01*
X11550492Y-15440484D02*
X11531444Y-15430960D01*
X11531444Y-15430960D02*
X11521920Y-15411912D01*
X11521920Y-15411912D02*
X11521920Y-15392865D01*
X11521920Y-15392865D02*
X11531444Y-15373817D01*
X11531444Y-15373817D02*
X11550492Y-15364293D01*
X11550492Y-15364293D02*
X11598111Y-15364293D01*
X11598111Y-15364293D02*
X11617158Y-15354769D01*
X11683825Y-15307150D02*
X11760015Y-15307150D01*
X11712396Y-15240484D02*
X11712396Y-15411912D01*
X11712396Y-15411912D02*
X11721920Y-15430960D01*
X11721920Y-15430960D02*
X11740968Y-15440484D01*
X11740968Y-15440484D02*
X11760015Y-15440484D01*
X11902873Y-15430960D02*
X11883825Y-15440484D01*
X11883825Y-15440484D02*
X11845730Y-15440484D01*
X11845730Y-15440484D02*
X11826682Y-15430960D01*
X11826682Y-15430960D02*
X11817158Y-15411912D01*
X11817158Y-15411912D02*
X11817158Y-15335722D01*
X11817158Y-15335722D02*
X11826682Y-15316674D01*
X11826682Y-15316674D02*
X11845730Y-15307150D01*
X11845730Y-15307150D02*
X11883825Y-15307150D01*
X11883825Y-15307150D02*
X11902873Y-15316674D01*
X11902873Y-15316674D02*
X11912396Y-15335722D01*
X11912396Y-15335722D02*
X11912396Y-15354769D01*
X11912396Y-15354769D02*
X11817158Y-15373817D01*
X12083825Y-15440484D02*
X12083825Y-15240484D01*
X12083825Y-15430960D02*
X12064777Y-15440484D01*
X12064777Y-15440484D02*
X12026682Y-15440484D01*
X12026682Y-15440484D02*
X12007634Y-15430960D01*
X12007634Y-15430960D02*
X11998111Y-15421436D01*
X11998111Y-15421436D02*
X11988587Y-15402388D01*
X11988587Y-15402388D02*
X11988587Y-15345246D01*
X11988587Y-15345246D02*
X11998111Y-15326198D01*
X11998111Y-15326198D02*
X12007634Y-15316674D01*
X12007634Y-15316674D02*
X12026682Y-15307150D01*
X12026682Y-15307150D02*
X12064777Y-15307150D01*
X12064777Y-15307150D02*
X12083825Y-15316674D01*
X12160015Y-15516674D02*
X12169539Y-15507150D01*
X12169539Y-15507150D02*
X12188587Y-15478579D01*
X12188587Y-15478579D02*
X12198111Y-15459531D01*
X12198111Y-15459531D02*
X12207634Y-15430960D01*
X12207634Y-15430960D02*
X12217158Y-15383341D01*
X12217158Y-15383341D02*
X12217158Y-15345246D01*
X12217158Y-15345246D02*
X12207634Y-15297627D01*
X12207634Y-15297627D02*
X12198111Y-15269055D01*
X12198111Y-15269055D02*
X12188587Y-15250008D01*
X12188587Y-15250008D02*
X12169539Y-15221436D01*
X12169539Y-15221436D02*
X12160015Y-15211912D01*
D10*
X5359000Y-15568000D02*
X5359000Y-15658000D01*
X5314000Y-15613000D02*
X5404000Y-15613000D01*
D11*
X5702872Y-15504484D02*
X5721920Y-15504484D01*
X5721920Y-15504484D02*
X5740967Y-15514008D01*
X5740967Y-15514008D02*
X5750491Y-15523531D01*
X5750491Y-15523531D02*
X5760015Y-15542579D01*
X5760015Y-15542579D02*
X5769539Y-15580674D01*
X5769539Y-15580674D02*
X5769539Y-15628293D01*
X5769539Y-15628293D02*
X5760015Y-15666388D01*
X5760015Y-15666388D02*
X5750491Y-15685436D01*
X5750491Y-15685436D02*
X5740967Y-15694960D01*
X5740967Y-15694960D02*
X5721920Y-15704484D01*
X5721920Y-15704484D02*
X5702872Y-15704484D01*
X5702872Y-15704484D02*
X5683824Y-15694960D01*
X5683824Y-15694960D02*
X5674301Y-15685436D01*
X5674301Y-15685436D02*
X5664777Y-15666388D01*
X5664777Y-15666388D02*
X5655253Y-15628293D01*
X5655253Y-15628293D02*
X5655253Y-15580674D01*
X5655253Y-15580674D02*
X5664777Y-15542579D01*
X5664777Y-15542579D02*
X5674301Y-15523531D01*
X5674301Y-15523531D02*
X5683824Y-15514008D01*
X5683824Y-15514008D02*
X5702872Y-15504484D01*
X5855253Y-15685436D02*
X5864777Y-15694960D01*
X5864777Y-15694960D02*
X5855253Y-15704484D01*
X5855253Y-15704484D02*
X5845729Y-15694960D01*
X5845729Y-15694960D02*
X5855253Y-15685436D01*
X5855253Y-15685436D02*
X5855253Y-15704484D01*
X5960015Y-15704484D02*
X5998110Y-15704484D01*
X5998110Y-15704484D02*
X6017158Y-15694960D01*
X6017158Y-15694960D02*
X6026682Y-15685436D01*
X6026682Y-15685436D02*
X6045729Y-15656865D01*
X6045729Y-15656865D02*
X6055253Y-15618769D01*
X6055253Y-15618769D02*
X6055253Y-15542579D01*
X6055253Y-15542579D02*
X6045729Y-15523531D01*
X6045729Y-15523531D02*
X6036205Y-15514008D01*
X6036205Y-15514008D02*
X6017158Y-15504484D01*
X6017158Y-15504484D02*
X5979062Y-15504484D01*
X5979062Y-15504484D02*
X5960015Y-15514008D01*
X5960015Y-15514008D02*
X5950491Y-15523531D01*
X5950491Y-15523531D02*
X5940967Y-15542579D01*
X5940967Y-15542579D02*
X5940967Y-15590198D01*
X5940967Y-15590198D02*
X5950491Y-15609246D01*
X5950491Y-15609246D02*
X5960015Y-15618769D01*
X5960015Y-15618769D02*
X5979062Y-15628293D01*
X5979062Y-15628293D02*
X6017158Y-15628293D01*
X6017158Y-15628293D02*
X6036205Y-15618769D01*
X6036205Y-15618769D02*
X6045729Y-15609246D01*
X6045729Y-15609246D02*
X6055253Y-15590198D01*
X6179062Y-15504484D02*
X6198110Y-15504484D01*
X6198110Y-15504484D02*
X6217158Y-15514008D01*
X6217158Y-15514008D02*
X6226682Y-15523531D01*
X6226682Y-15523531D02*
X6236205Y-15542579D01*
X6236205Y-15542579D02*
X6245729Y-15580674D01*
X6245729Y-15580674D02*
X6245729Y-15628293D01*
X6245729Y-15628293D02*
X6236205Y-15666388D01*
X6236205Y-15666388D02*
X6226682Y-15685436D01*
X6226682Y-15685436D02*
X6217158Y-15694960D01*
X6217158Y-15694960D02*
X6198110Y-15704484D01*
X6198110Y-15704484D02*
X6179062Y-15704484D01*
X6179062Y-15704484D02*
X6160015Y-15694960D01*
X6160015Y-15694960D02*
X6150491Y-15685436D01*
X6150491Y-15685436D02*
X6140967Y-15666388D01*
X6140967Y-15666388D02*
X6131443Y-15628293D01*
X6131443Y-15628293D02*
X6131443Y-15580674D01*
X6131443Y-15580674D02*
X6140967Y-15542579D01*
X6140967Y-15542579D02*
X6150491Y-15523531D01*
X6150491Y-15523531D02*
X6160015Y-15514008D01*
X6160015Y-15514008D02*
X6179062Y-15504484D01*
X6369539Y-15504484D02*
X6388586Y-15504484D01*
X6388586Y-15504484D02*
X6407634Y-15514008D01*
X6407634Y-15514008D02*
X6417158Y-15523531D01*
X6417158Y-15523531D02*
X6426682Y-15542579D01*
X6426682Y-15542579D02*
X6436205Y-15580674D01*
X6436205Y-15580674D02*
X6436205Y-15628293D01*
X6436205Y-15628293D02*
X6426682Y-15666388D01*
X6426682Y-15666388D02*
X6417158Y-15685436D01*
X6417158Y-15685436D02*
X6407634Y-15694960D01*
X6407634Y-15694960D02*
X6388586Y-15704484D01*
X6388586Y-15704484D02*
X6369539Y-15704484D01*
X6369539Y-15704484D02*
X6350491Y-15694960D01*
X6350491Y-15694960D02*
X6340967Y-15685436D01*
X6340967Y-15685436D02*
X6331443Y-15666388D01*
X6331443Y-15666388D02*
X6321920Y-15628293D01*
X6321920Y-15628293D02*
X6321920Y-15580674D01*
X6321920Y-15580674D02*
X6331443Y-15542579D01*
X6331443Y-15542579D02*
X6340967Y-15523531D01*
X6340967Y-15523531D02*
X6350491Y-15514008D01*
X6350491Y-15514008D02*
X6369539Y-15504484D01*
X6521920Y-15704484D02*
X6521920Y-15571150D01*
X6521920Y-15590198D02*
X6531443Y-15580674D01*
X6531443Y-15580674D02*
X6550491Y-15571150D01*
X6550491Y-15571150D02*
X6579063Y-15571150D01*
X6579063Y-15571150D02*
X6598110Y-15580674D01*
X6598110Y-15580674D02*
X6607634Y-15599722D01*
X6607634Y-15599722D02*
X6607634Y-15704484D01*
X6607634Y-15599722D02*
X6617158Y-15580674D01*
X6617158Y-15580674D02*
X6636205Y-15571150D01*
X6636205Y-15571150D02*
X6664777Y-15571150D01*
X6664777Y-15571150D02*
X6683824Y-15580674D01*
X6683824Y-15580674D02*
X6693348Y-15599722D01*
X6693348Y-15599722D02*
X6693348Y-15704484D01*
X6788586Y-15704484D02*
X6788586Y-15571150D01*
X6788586Y-15590198D02*
X6798110Y-15580674D01*
X6798110Y-15580674D02*
X6817158Y-15571150D01*
X6817158Y-15571150D02*
X6845729Y-15571150D01*
X6845729Y-15571150D02*
X6864777Y-15580674D01*
X6864777Y-15580674D02*
X6874301Y-15599722D01*
X6874301Y-15599722D02*
X6874301Y-15704484D01*
X6874301Y-15599722D02*
X6883824Y-15580674D01*
X6883824Y-15580674D02*
X6902872Y-15571150D01*
X6902872Y-15571150D02*
X6931443Y-15571150D01*
X6931443Y-15571150D02*
X6950491Y-15580674D01*
X6950491Y-15580674D02*
X6960015Y-15599722D01*
X6960015Y-15599722D02*
X6960015Y-15704484D01*
X7350491Y-15494960D02*
X7179063Y-15752103D01*
X7607634Y-15504484D02*
X7626682Y-15504484D01*
X7626682Y-15504484D02*
X7645729Y-15514008D01*
X7645729Y-15514008D02*
X7655253Y-15523531D01*
X7655253Y-15523531D02*
X7664777Y-15542579D01*
X7664777Y-15542579D02*
X7674301Y-15580674D01*
X7674301Y-15580674D02*
X7674301Y-15628293D01*
X7674301Y-15628293D02*
X7664777Y-15666388D01*
X7664777Y-15666388D02*
X7655253Y-15685436D01*
X7655253Y-15685436D02*
X7645729Y-15694960D01*
X7645729Y-15694960D02*
X7626682Y-15704484D01*
X7626682Y-15704484D02*
X7607634Y-15704484D01*
X7607634Y-15704484D02*
X7588586Y-15694960D01*
X7588586Y-15694960D02*
X7579063Y-15685436D01*
X7579063Y-15685436D02*
X7569539Y-15666388D01*
X7569539Y-15666388D02*
X7560015Y-15628293D01*
X7560015Y-15628293D02*
X7560015Y-15580674D01*
X7560015Y-15580674D02*
X7569539Y-15542579D01*
X7569539Y-15542579D02*
X7579063Y-15523531D01*
X7579063Y-15523531D02*
X7588586Y-15514008D01*
X7588586Y-15514008D02*
X7607634Y-15504484D01*
X7760015Y-15685436D02*
X7769539Y-15694960D01*
X7769539Y-15694960D02*
X7760015Y-15704484D01*
X7760015Y-15704484D02*
X7750491Y-15694960D01*
X7750491Y-15694960D02*
X7760015Y-15685436D01*
X7760015Y-15685436D02*
X7760015Y-15704484D01*
X7893348Y-15504484D02*
X7912396Y-15504484D01*
X7912396Y-15504484D02*
X7931444Y-15514008D01*
X7931444Y-15514008D02*
X7940967Y-15523531D01*
X7940967Y-15523531D02*
X7950491Y-15542579D01*
X7950491Y-15542579D02*
X7960015Y-15580674D01*
X7960015Y-15580674D02*
X7960015Y-15628293D01*
X7960015Y-15628293D02*
X7950491Y-15666388D01*
X7950491Y-15666388D02*
X7940967Y-15685436D01*
X7940967Y-15685436D02*
X7931444Y-15694960D01*
X7931444Y-15694960D02*
X7912396Y-15704484D01*
X7912396Y-15704484D02*
X7893348Y-15704484D01*
X7893348Y-15704484D02*
X7874301Y-15694960D01*
X7874301Y-15694960D02*
X7864777Y-15685436D01*
X7864777Y-15685436D02*
X7855253Y-15666388D01*
X7855253Y-15666388D02*
X7845729Y-15628293D01*
X7845729Y-15628293D02*
X7845729Y-15580674D01*
X7845729Y-15580674D02*
X7855253Y-15542579D01*
X7855253Y-15542579D02*
X7864777Y-15523531D01*
X7864777Y-15523531D02*
X7874301Y-15514008D01*
X7874301Y-15514008D02*
X7893348Y-15504484D01*
X8026682Y-15504484D02*
X8150491Y-15504484D01*
X8150491Y-15504484D02*
X8083825Y-15580674D01*
X8083825Y-15580674D02*
X8112396Y-15580674D01*
X8112396Y-15580674D02*
X8131444Y-15590198D01*
X8131444Y-15590198D02*
X8140967Y-15599722D01*
X8140967Y-15599722D02*
X8150491Y-15618769D01*
X8150491Y-15618769D02*
X8150491Y-15666388D01*
X8150491Y-15666388D02*
X8140967Y-15685436D01*
X8140967Y-15685436D02*
X8131444Y-15694960D01*
X8131444Y-15694960D02*
X8112396Y-15704484D01*
X8112396Y-15704484D02*
X8055253Y-15704484D01*
X8055253Y-15704484D02*
X8036206Y-15694960D01*
X8036206Y-15694960D02*
X8026682Y-15685436D01*
X8331444Y-15504484D02*
X8236206Y-15504484D01*
X8236206Y-15504484D02*
X8226682Y-15599722D01*
X8226682Y-15599722D02*
X8236206Y-15590198D01*
X8236206Y-15590198D02*
X8255253Y-15580674D01*
X8255253Y-15580674D02*
X8302872Y-15580674D01*
X8302872Y-15580674D02*
X8321920Y-15590198D01*
X8321920Y-15590198D02*
X8331444Y-15599722D01*
X8331444Y-15599722D02*
X8340967Y-15618769D01*
X8340967Y-15618769D02*
X8340967Y-15666388D01*
X8340967Y-15666388D02*
X8331444Y-15685436D01*
X8331444Y-15685436D02*
X8321920Y-15694960D01*
X8321920Y-15694960D02*
X8302872Y-15704484D01*
X8302872Y-15704484D02*
X8255253Y-15704484D01*
X8255253Y-15704484D02*
X8236206Y-15694960D01*
X8236206Y-15694960D02*
X8226682Y-15685436D01*
X8512396Y-15571150D02*
X8512396Y-15704484D01*
X8464777Y-15494960D02*
X8417158Y-15637817D01*
X8417158Y-15637817D02*
X8540968Y-15637817D01*
X8607634Y-15504484D02*
X8607634Y-15542579D01*
X8683825Y-15504484D02*
X8683825Y-15542579D01*
X8979063Y-15780674D02*
X8969539Y-15771150D01*
X8969539Y-15771150D02*
X8950491Y-15742579D01*
X8950491Y-15742579D02*
X8940968Y-15723531D01*
X8940968Y-15723531D02*
X8931444Y-15694960D01*
X8931444Y-15694960D02*
X8921920Y-15647341D01*
X8921920Y-15647341D02*
X8921920Y-15609246D01*
X8921920Y-15609246D02*
X8931444Y-15561627D01*
X8931444Y-15561627D02*
X8940968Y-15533055D01*
X8940968Y-15533055D02*
X8950491Y-15514008D01*
X8950491Y-15514008D02*
X8969539Y-15485436D01*
X8969539Y-15485436D02*
X8979063Y-15475912D01*
X9045730Y-15523531D02*
X9055253Y-15514008D01*
X9055253Y-15514008D02*
X9074301Y-15504484D01*
X9074301Y-15504484D02*
X9121920Y-15504484D01*
X9121920Y-15504484D02*
X9140968Y-15514008D01*
X9140968Y-15514008D02*
X9150491Y-15523531D01*
X9150491Y-15523531D02*
X9160015Y-15542579D01*
X9160015Y-15542579D02*
X9160015Y-15561627D01*
X9160015Y-15561627D02*
X9150491Y-15590198D01*
X9150491Y-15590198D02*
X9036206Y-15704484D01*
X9036206Y-15704484D02*
X9160015Y-15704484D01*
X9398111Y-15704484D02*
X9398111Y-15504484D01*
X9483825Y-15704484D02*
X9483825Y-15599722D01*
X9483825Y-15599722D02*
X9474301Y-15580674D01*
X9474301Y-15580674D02*
X9455253Y-15571150D01*
X9455253Y-15571150D02*
X9426682Y-15571150D01*
X9426682Y-15571150D02*
X9407634Y-15580674D01*
X9407634Y-15580674D02*
X9398111Y-15590198D01*
X9607634Y-15704484D02*
X9588587Y-15694960D01*
X9588587Y-15694960D02*
X9579063Y-15685436D01*
X9579063Y-15685436D02*
X9569539Y-15666388D01*
X9569539Y-15666388D02*
X9569539Y-15609246D01*
X9569539Y-15609246D02*
X9579063Y-15590198D01*
X9579063Y-15590198D02*
X9588587Y-15580674D01*
X9588587Y-15580674D02*
X9607634Y-15571150D01*
X9607634Y-15571150D02*
X9636206Y-15571150D01*
X9636206Y-15571150D02*
X9655253Y-15580674D01*
X9655253Y-15580674D02*
X9664777Y-15590198D01*
X9664777Y-15590198D02*
X9674301Y-15609246D01*
X9674301Y-15609246D02*
X9674301Y-15666388D01*
X9674301Y-15666388D02*
X9664777Y-15685436D01*
X9664777Y-15685436D02*
X9655253Y-15694960D01*
X9655253Y-15694960D02*
X9636206Y-15704484D01*
X9636206Y-15704484D02*
X9607634Y-15704484D01*
X9788587Y-15704484D02*
X9769539Y-15694960D01*
X9769539Y-15694960D02*
X9760015Y-15675912D01*
X9760015Y-15675912D02*
X9760015Y-15504484D01*
X9940968Y-15694960D02*
X9921920Y-15704484D01*
X9921920Y-15704484D02*
X9883825Y-15704484D01*
X9883825Y-15704484D02*
X9864777Y-15694960D01*
X9864777Y-15694960D02*
X9855253Y-15675912D01*
X9855253Y-15675912D02*
X9855253Y-15599722D01*
X9855253Y-15599722D02*
X9864777Y-15580674D01*
X9864777Y-15580674D02*
X9883825Y-15571150D01*
X9883825Y-15571150D02*
X9921920Y-15571150D01*
X9921920Y-15571150D02*
X9940968Y-15580674D01*
X9940968Y-15580674D02*
X9950492Y-15599722D01*
X9950492Y-15599722D02*
X9950492Y-15618769D01*
X9950492Y-15618769D02*
X9855253Y-15637817D01*
X10026682Y-15694960D02*
X10045730Y-15704484D01*
X10045730Y-15704484D02*
X10083825Y-15704484D01*
X10083825Y-15704484D02*
X10102873Y-15694960D01*
X10102873Y-15694960D02*
X10112396Y-15675912D01*
X10112396Y-15675912D02*
X10112396Y-15666388D01*
X10112396Y-15666388D02*
X10102873Y-15647341D01*
X10102873Y-15647341D02*
X10083825Y-15637817D01*
X10083825Y-15637817D02*
X10055253Y-15637817D01*
X10055253Y-15637817D02*
X10036206Y-15628293D01*
X10036206Y-15628293D02*
X10026682Y-15609246D01*
X10026682Y-15609246D02*
X10026682Y-15599722D01*
X10026682Y-15599722D02*
X10036206Y-15580674D01*
X10036206Y-15580674D02*
X10055253Y-15571150D01*
X10055253Y-15571150D02*
X10083825Y-15571150D01*
X10083825Y-15571150D02*
X10102873Y-15580674D01*
X10179063Y-15780674D02*
X10188587Y-15771150D01*
X10188587Y-15771150D02*
X10207634Y-15742579D01*
X10207634Y-15742579D02*
X10217158Y-15723531D01*
X10217158Y-15723531D02*
X10226682Y-15694960D01*
X10226682Y-15694960D02*
X10236206Y-15647341D01*
X10236206Y-15647341D02*
X10236206Y-15609246D01*
X10236206Y-15609246D02*
X10226682Y-15561627D01*
X10226682Y-15561627D02*
X10217158Y-15533055D01*
X10217158Y-15533055D02*
X10207634Y-15514008D01*
X10207634Y-15514008D02*
X10188587Y-15485436D01*
X10188587Y-15485436D02*
X10179063Y-15475912D01*
X10540968Y-15780674D02*
X10531444Y-15771150D01*
X10531444Y-15771150D02*
X10512396Y-15742579D01*
X10512396Y-15742579D02*
X10502873Y-15723531D01*
X10502873Y-15723531D02*
X10493349Y-15694960D01*
X10493349Y-15694960D02*
X10483825Y-15647341D01*
X10483825Y-15647341D02*
X10483825Y-15609246D01*
X10483825Y-15609246D02*
X10493349Y-15561627D01*
X10493349Y-15561627D02*
X10502873Y-15533055D01*
X10502873Y-15533055D02*
X10512396Y-15514008D01*
X10512396Y-15514008D02*
X10531444Y-15485436D01*
X10531444Y-15485436D02*
X10540968Y-15475912D01*
X10617158Y-15571150D02*
X10617158Y-15704484D01*
X10617158Y-15590198D02*
X10626682Y-15580674D01*
X10626682Y-15580674D02*
X10645730Y-15571150D01*
X10645730Y-15571150D02*
X10674301Y-15571150D01*
X10674301Y-15571150D02*
X10693349Y-15580674D01*
X10693349Y-15580674D02*
X10702873Y-15599722D01*
X10702873Y-15599722D02*
X10702873Y-15704484D01*
X10826682Y-15704484D02*
X10807634Y-15694960D01*
X10807634Y-15694960D02*
X10798111Y-15685436D01*
X10798111Y-15685436D02*
X10788587Y-15666388D01*
X10788587Y-15666388D02*
X10788587Y-15609246D01*
X10788587Y-15609246D02*
X10798111Y-15590198D01*
X10798111Y-15590198D02*
X10807634Y-15580674D01*
X10807634Y-15580674D02*
X10826682Y-15571150D01*
X10826682Y-15571150D02*
X10855254Y-15571150D01*
X10855254Y-15571150D02*
X10874301Y-15580674D01*
X10874301Y-15580674D02*
X10883825Y-15590198D01*
X10883825Y-15590198D02*
X10893349Y-15609246D01*
X10893349Y-15609246D02*
X10893349Y-15666388D01*
X10893349Y-15666388D02*
X10883825Y-15685436D01*
X10883825Y-15685436D02*
X10874301Y-15694960D01*
X10874301Y-15694960D02*
X10855254Y-15704484D01*
X10855254Y-15704484D02*
X10826682Y-15704484D01*
X10950492Y-15571150D02*
X11026682Y-15571150D01*
X10979063Y-15504484D02*
X10979063Y-15675912D01*
X10979063Y-15675912D02*
X10988587Y-15694960D01*
X10988587Y-15694960D02*
X11007634Y-15704484D01*
X11007634Y-15704484D02*
X11026682Y-15704484D01*
X11245730Y-15571150D02*
X11245730Y-15771150D01*
X11245730Y-15580674D02*
X11264777Y-15571150D01*
X11264777Y-15571150D02*
X11302873Y-15571150D01*
X11302873Y-15571150D02*
X11321920Y-15580674D01*
X11321920Y-15580674D02*
X11331444Y-15590198D01*
X11331444Y-15590198D02*
X11340968Y-15609246D01*
X11340968Y-15609246D02*
X11340968Y-15666388D01*
X11340968Y-15666388D02*
X11331444Y-15685436D01*
X11331444Y-15685436D02*
X11321920Y-15694960D01*
X11321920Y-15694960D02*
X11302873Y-15704484D01*
X11302873Y-15704484D02*
X11264777Y-15704484D01*
X11264777Y-15704484D02*
X11245730Y-15694960D01*
X11455253Y-15704484D02*
X11436206Y-15694960D01*
X11436206Y-15694960D02*
X11426682Y-15675912D01*
X11426682Y-15675912D02*
X11426682Y-15504484D01*
X11617158Y-15704484D02*
X11617158Y-15599722D01*
X11617158Y-15599722D02*
X11607634Y-15580674D01*
X11607634Y-15580674D02*
X11588587Y-15571150D01*
X11588587Y-15571150D02*
X11550492Y-15571150D01*
X11550492Y-15571150D02*
X11531444Y-15580674D01*
X11617158Y-15694960D02*
X11598111Y-15704484D01*
X11598111Y-15704484D02*
X11550492Y-15704484D01*
X11550492Y-15704484D02*
X11531444Y-15694960D01*
X11531444Y-15694960D02*
X11521920Y-15675912D01*
X11521920Y-15675912D02*
X11521920Y-15656865D01*
X11521920Y-15656865D02*
X11531444Y-15637817D01*
X11531444Y-15637817D02*
X11550492Y-15628293D01*
X11550492Y-15628293D02*
X11598111Y-15628293D01*
X11598111Y-15628293D02*
X11617158Y-15618769D01*
X11683825Y-15571150D02*
X11760015Y-15571150D01*
X11712396Y-15504484D02*
X11712396Y-15675912D01*
X11712396Y-15675912D02*
X11721920Y-15694960D01*
X11721920Y-15694960D02*
X11740968Y-15704484D01*
X11740968Y-15704484D02*
X11760015Y-15704484D01*
X11902873Y-15694960D02*
X11883825Y-15704484D01*
X11883825Y-15704484D02*
X11845730Y-15704484D01*
X11845730Y-15704484D02*
X11826682Y-15694960D01*
X11826682Y-15694960D02*
X11817158Y-15675912D01*
X11817158Y-15675912D02*
X11817158Y-15599722D01*
X11817158Y-15599722D02*
X11826682Y-15580674D01*
X11826682Y-15580674D02*
X11845730Y-15571150D01*
X11845730Y-15571150D02*
X11883825Y-15571150D01*
X11883825Y-15571150D02*
X11902873Y-15580674D01*
X11902873Y-15580674D02*
X11912396Y-15599722D01*
X11912396Y-15599722D02*
X11912396Y-15618769D01*
X11912396Y-15618769D02*
X11817158Y-15637817D01*
X12083825Y-15704484D02*
X12083825Y-15504484D01*
X12083825Y-15694960D02*
X12064777Y-15704484D01*
X12064777Y-15704484D02*
X12026682Y-15704484D01*
X12026682Y-15704484D02*
X12007634Y-15694960D01*
X12007634Y-15694960D02*
X11998111Y-15685436D01*
X11998111Y-15685436D02*
X11988587Y-15666388D01*
X11988587Y-15666388D02*
X11988587Y-15609246D01*
X11988587Y-15609246D02*
X11998111Y-15590198D01*
X11998111Y-15590198D02*
X12007634Y-15580674D01*
X12007634Y-15580674D02*
X12026682Y-15571150D01*
X12026682Y-15571150D02*
X12064777Y-15571150D01*
X12064777Y-15571150D02*
X12083825Y-15580674D01*
X12160015Y-15780674D02*
X12169539Y-15771150D01*
X12169539Y-15771150D02*
X12188587Y-15742579D01*
X12188587Y-15742579D02*
X12198111Y-15723531D01*
X12198111Y-15723531D02*
X12207634Y-15694960D01*
X12207634Y-15694960D02*
X12217158Y-15647341D01*
X12217158Y-15647341D02*
X12217158Y-15609246D01*
X12217158Y-15609246D02*
X12207634Y-15561627D01*
X12207634Y-15561627D02*
X12198111Y-15533055D01*
X12198111Y-15533055D02*
X12188587Y-15514008D01*
X12188587Y-15514008D02*
X12169539Y-15485436D01*
X12169539Y-15485436D02*
X12160015Y-15475912D01*
X5374711Y-15947711D02*
X5374711Y-15806289D01*
X5233289Y-15806289D01*
X5233289Y-15947711D01*
X5374711Y-15947711D01*
X5655253Y-15787531D02*
X5664777Y-15778008D01*
X5664777Y-15778008D02*
X5683824Y-15768484D01*
X5683824Y-15768484D02*
X5731443Y-15768484D01*
X5731443Y-15768484D02*
X5750491Y-15778008D01*
X5750491Y-15778008D02*
X5760015Y-15787531D01*
X5760015Y-15787531D02*
X5769539Y-15806579D01*
X5769539Y-15806579D02*
X5769539Y-15825627D01*
X5769539Y-15825627D02*
X5760015Y-15854198D01*
X5760015Y-15854198D02*
X5645729Y-15968484D01*
X5645729Y-15968484D02*
X5769539Y-15968484D01*
X5855253Y-15949436D02*
X5864777Y-15958960D01*
X5864777Y-15958960D02*
X5855253Y-15968484D01*
X5855253Y-15968484D02*
X5845729Y-15958960D01*
X5845729Y-15958960D02*
X5855253Y-15949436D01*
X5855253Y-15949436D02*
X5855253Y-15968484D01*
X5931443Y-15768484D02*
X6064777Y-15768484D01*
X6064777Y-15768484D02*
X5979062Y-15968484D01*
X6179062Y-15768484D02*
X6198110Y-15768484D01*
X6198110Y-15768484D02*
X6217158Y-15778008D01*
X6217158Y-15778008D02*
X6226682Y-15787531D01*
X6226682Y-15787531D02*
X6236205Y-15806579D01*
X6236205Y-15806579D02*
X6245729Y-15844674D01*
X6245729Y-15844674D02*
X6245729Y-15892293D01*
X6245729Y-15892293D02*
X6236205Y-15930388D01*
X6236205Y-15930388D02*
X6226682Y-15949436D01*
X6226682Y-15949436D02*
X6217158Y-15958960D01*
X6217158Y-15958960D02*
X6198110Y-15968484D01*
X6198110Y-15968484D02*
X6179062Y-15968484D01*
X6179062Y-15968484D02*
X6160015Y-15958960D01*
X6160015Y-15958960D02*
X6150491Y-15949436D01*
X6150491Y-15949436D02*
X6140967Y-15930388D01*
X6140967Y-15930388D02*
X6131443Y-15892293D01*
X6131443Y-15892293D02*
X6131443Y-15844674D01*
X6131443Y-15844674D02*
X6140967Y-15806579D01*
X6140967Y-15806579D02*
X6150491Y-15787531D01*
X6150491Y-15787531D02*
X6160015Y-15778008D01*
X6160015Y-15778008D02*
X6179062Y-15768484D01*
X6369539Y-15768484D02*
X6388586Y-15768484D01*
X6388586Y-15768484D02*
X6407634Y-15778008D01*
X6407634Y-15778008D02*
X6417158Y-15787531D01*
X6417158Y-15787531D02*
X6426682Y-15806579D01*
X6426682Y-15806579D02*
X6436205Y-15844674D01*
X6436205Y-15844674D02*
X6436205Y-15892293D01*
X6436205Y-15892293D02*
X6426682Y-15930388D01*
X6426682Y-15930388D02*
X6417158Y-15949436D01*
X6417158Y-15949436D02*
X6407634Y-15958960D01*
X6407634Y-15958960D02*
X6388586Y-15968484D01*
X6388586Y-15968484D02*
X6369539Y-15968484D01*
X6369539Y-15968484D02*
X6350491Y-15958960D01*
X6350491Y-15958960D02*
X6340967Y-15949436D01*
X6340967Y-15949436D02*
X6331443Y-15930388D01*
X6331443Y-15930388D02*
X6321920Y-15892293D01*
X6321920Y-15892293D02*
X6321920Y-15844674D01*
X6321920Y-15844674D02*
X6331443Y-15806579D01*
X6331443Y-15806579D02*
X6340967Y-15787531D01*
X6340967Y-15787531D02*
X6350491Y-15778008D01*
X6350491Y-15778008D02*
X6369539Y-15768484D01*
X6521920Y-15968484D02*
X6521920Y-15835150D01*
X6521920Y-15854198D02*
X6531443Y-15844674D01*
X6531443Y-15844674D02*
X6550491Y-15835150D01*
X6550491Y-15835150D02*
X6579063Y-15835150D01*
X6579063Y-15835150D02*
X6598110Y-15844674D01*
X6598110Y-15844674D02*
X6607634Y-15863722D01*
X6607634Y-15863722D02*
X6607634Y-15968484D01*
X6607634Y-15863722D02*
X6617158Y-15844674D01*
X6617158Y-15844674D02*
X6636205Y-15835150D01*
X6636205Y-15835150D02*
X6664777Y-15835150D01*
X6664777Y-15835150D02*
X6683824Y-15844674D01*
X6683824Y-15844674D02*
X6693348Y-15863722D01*
X6693348Y-15863722D02*
X6693348Y-15968484D01*
X6788586Y-15968484D02*
X6788586Y-15835150D01*
X6788586Y-15854198D02*
X6798110Y-15844674D01*
X6798110Y-15844674D02*
X6817158Y-15835150D01*
X6817158Y-15835150D02*
X6845729Y-15835150D01*
X6845729Y-15835150D02*
X6864777Y-15844674D01*
X6864777Y-15844674D02*
X6874301Y-15863722D01*
X6874301Y-15863722D02*
X6874301Y-15968484D01*
X6874301Y-15863722D02*
X6883824Y-15844674D01*
X6883824Y-15844674D02*
X6902872Y-15835150D01*
X6902872Y-15835150D02*
X6931443Y-15835150D01*
X6931443Y-15835150D02*
X6950491Y-15844674D01*
X6950491Y-15844674D02*
X6960015Y-15863722D01*
X6960015Y-15863722D02*
X6960015Y-15968484D01*
X7350491Y-15758960D02*
X7179063Y-16016103D01*
X7607634Y-15768484D02*
X7626682Y-15768484D01*
X7626682Y-15768484D02*
X7645729Y-15778008D01*
X7645729Y-15778008D02*
X7655253Y-15787531D01*
X7655253Y-15787531D02*
X7664777Y-15806579D01*
X7664777Y-15806579D02*
X7674301Y-15844674D01*
X7674301Y-15844674D02*
X7674301Y-15892293D01*
X7674301Y-15892293D02*
X7664777Y-15930388D01*
X7664777Y-15930388D02*
X7655253Y-15949436D01*
X7655253Y-15949436D02*
X7645729Y-15958960D01*
X7645729Y-15958960D02*
X7626682Y-15968484D01*
X7626682Y-15968484D02*
X7607634Y-15968484D01*
X7607634Y-15968484D02*
X7588586Y-15958960D01*
X7588586Y-15958960D02*
X7579063Y-15949436D01*
X7579063Y-15949436D02*
X7569539Y-15930388D01*
X7569539Y-15930388D02*
X7560015Y-15892293D01*
X7560015Y-15892293D02*
X7560015Y-15844674D01*
X7560015Y-15844674D02*
X7569539Y-15806579D01*
X7569539Y-15806579D02*
X7579063Y-15787531D01*
X7579063Y-15787531D02*
X7588586Y-15778008D01*
X7588586Y-15778008D02*
X7607634Y-15768484D01*
X7760015Y-15949436D02*
X7769539Y-15958960D01*
X7769539Y-15958960D02*
X7760015Y-15968484D01*
X7760015Y-15968484D02*
X7750491Y-15958960D01*
X7750491Y-15958960D02*
X7760015Y-15949436D01*
X7760015Y-15949436D02*
X7760015Y-15968484D01*
X7960015Y-15968484D02*
X7845729Y-15968484D01*
X7902872Y-15968484D02*
X7902872Y-15768484D01*
X7902872Y-15768484D02*
X7883825Y-15797055D01*
X7883825Y-15797055D02*
X7864777Y-15816103D01*
X7864777Y-15816103D02*
X7845729Y-15825627D01*
X8083825Y-15768484D02*
X8102872Y-15768484D01*
X8102872Y-15768484D02*
X8121920Y-15778008D01*
X8121920Y-15778008D02*
X8131444Y-15787531D01*
X8131444Y-15787531D02*
X8140967Y-15806579D01*
X8140967Y-15806579D02*
X8150491Y-15844674D01*
X8150491Y-15844674D02*
X8150491Y-15892293D01*
X8150491Y-15892293D02*
X8140967Y-15930388D01*
X8140967Y-15930388D02*
X8131444Y-15949436D01*
X8131444Y-15949436D02*
X8121920Y-15958960D01*
X8121920Y-15958960D02*
X8102872Y-15968484D01*
X8102872Y-15968484D02*
X8083825Y-15968484D01*
X8083825Y-15968484D02*
X8064777Y-15958960D01*
X8064777Y-15958960D02*
X8055253Y-15949436D01*
X8055253Y-15949436D02*
X8045729Y-15930388D01*
X8045729Y-15930388D02*
X8036206Y-15892293D01*
X8036206Y-15892293D02*
X8036206Y-15844674D01*
X8036206Y-15844674D02*
X8045729Y-15806579D01*
X8045729Y-15806579D02*
X8055253Y-15787531D01*
X8055253Y-15787531D02*
X8064777Y-15778008D01*
X8064777Y-15778008D02*
X8083825Y-15768484D01*
X8321920Y-15768484D02*
X8283825Y-15768484D01*
X8283825Y-15768484D02*
X8264777Y-15778008D01*
X8264777Y-15778008D02*
X8255253Y-15787531D01*
X8255253Y-15787531D02*
X8236206Y-15816103D01*
X8236206Y-15816103D02*
X8226682Y-15854198D01*
X8226682Y-15854198D02*
X8226682Y-15930388D01*
X8226682Y-15930388D02*
X8236206Y-15949436D01*
X8236206Y-15949436D02*
X8245729Y-15958960D01*
X8245729Y-15958960D02*
X8264777Y-15968484D01*
X8264777Y-15968484D02*
X8302872Y-15968484D01*
X8302872Y-15968484D02*
X8321920Y-15958960D01*
X8321920Y-15958960D02*
X8331444Y-15949436D01*
X8331444Y-15949436D02*
X8340967Y-15930388D01*
X8340967Y-15930388D02*
X8340967Y-15882769D01*
X8340967Y-15882769D02*
X8331444Y-15863722D01*
X8331444Y-15863722D02*
X8321920Y-15854198D01*
X8321920Y-15854198D02*
X8302872Y-15844674D01*
X8302872Y-15844674D02*
X8264777Y-15844674D01*
X8264777Y-15844674D02*
X8245729Y-15854198D01*
X8245729Y-15854198D02*
X8236206Y-15863722D01*
X8236206Y-15863722D02*
X8226682Y-15882769D01*
X8407634Y-15768484D02*
X8531444Y-15768484D01*
X8531444Y-15768484D02*
X8464777Y-15844674D01*
X8464777Y-15844674D02*
X8493349Y-15844674D01*
X8493349Y-15844674D02*
X8512396Y-15854198D01*
X8512396Y-15854198D02*
X8521920Y-15863722D01*
X8521920Y-15863722D02*
X8531444Y-15882769D01*
X8531444Y-15882769D02*
X8531444Y-15930388D01*
X8531444Y-15930388D02*
X8521920Y-15949436D01*
X8521920Y-15949436D02*
X8512396Y-15958960D01*
X8512396Y-15958960D02*
X8493349Y-15968484D01*
X8493349Y-15968484D02*
X8436206Y-15968484D01*
X8436206Y-15968484D02*
X8417158Y-15958960D01*
X8417158Y-15958960D02*
X8407634Y-15949436D01*
X8607634Y-15768484D02*
X8607634Y-15806579D01*
X8683825Y-15768484D02*
X8683825Y-15806579D01*
X8979063Y-16044674D02*
X8969539Y-16035150D01*
X8969539Y-16035150D02*
X8950491Y-16006579D01*
X8950491Y-16006579D02*
X8940968Y-15987531D01*
X8940968Y-15987531D02*
X8931444Y-15958960D01*
X8931444Y-15958960D02*
X8921920Y-15911341D01*
X8921920Y-15911341D02*
X8921920Y-15873246D01*
X8921920Y-15873246D02*
X8931444Y-15825627D01*
X8931444Y-15825627D02*
X8940968Y-15797055D01*
X8940968Y-15797055D02*
X8950491Y-15778008D01*
X8950491Y-15778008D02*
X8969539Y-15749436D01*
X8969539Y-15749436D02*
X8979063Y-15739912D01*
X9045730Y-15787531D02*
X9055253Y-15778008D01*
X9055253Y-15778008D02*
X9074301Y-15768484D01*
X9074301Y-15768484D02*
X9121920Y-15768484D01*
X9121920Y-15768484D02*
X9140968Y-15778008D01*
X9140968Y-15778008D02*
X9150491Y-15787531D01*
X9150491Y-15787531D02*
X9160015Y-15806579D01*
X9160015Y-15806579D02*
X9160015Y-15825627D01*
X9160015Y-15825627D02*
X9150491Y-15854198D01*
X9150491Y-15854198D02*
X9036206Y-15968484D01*
X9036206Y-15968484D02*
X9160015Y-15968484D01*
X9398111Y-15968484D02*
X9398111Y-15768484D01*
X9483825Y-15968484D02*
X9483825Y-15863722D01*
X9483825Y-15863722D02*
X9474301Y-15844674D01*
X9474301Y-15844674D02*
X9455253Y-15835150D01*
X9455253Y-15835150D02*
X9426682Y-15835150D01*
X9426682Y-15835150D02*
X9407634Y-15844674D01*
X9407634Y-15844674D02*
X9398111Y-15854198D01*
X9607634Y-15968484D02*
X9588587Y-15958960D01*
X9588587Y-15958960D02*
X9579063Y-15949436D01*
X9579063Y-15949436D02*
X9569539Y-15930388D01*
X9569539Y-15930388D02*
X9569539Y-15873246D01*
X9569539Y-15873246D02*
X9579063Y-15854198D01*
X9579063Y-15854198D02*
X9588587Y-15844674D01*
X9588587Y-15844674D02*
X9607634Y-15835150D01*
X9607634Y-15835150D02*
X9636206Y-15835150D01*
X9636206Y-15835150D02*
X9655253Y-15844674D01*
X9655253Y-15844674D02*
X9664777Y-15854198D01*
X9664777Y-15854198D02*
X9674301Y-15873246D01*
X9674301Y-15873246D02*
X9674301Y-15930388D01*
X9674301Y-15930388D02*
X9664777Y-15949436D01*
X9664777Y-15949436D02*
X9655253Y-15958960D01*
X9655253Y-15958960D02*
X9636206Y-15968484D01*
X9636206Y-15968484D02*
X9607634Y-15968484D01*
X9788587Y-15968484D02*
X9769539Y-15958960D01*
X9769539Y-15958960D02*
X9760015Y-15939912D01*
X9760015Y-15939912D02*
X9760015Y-15768484D01*
X9940968Y-15958960D02*
X9921920Y-15968484D01*
X9921920Y-15968484D02*
X9883825Y-15968484D01*
X9883825Y-15968484D02*
X9864777Y-15958960D01*
X9864777Y-15958960D02*
X9855253Y-15939912D01*
X9855253Y-15939912D02*
X9855253Y-15863722D01*
X9855253Y-15863722D02*
X9864777Y-15844674D01*
X9864777Y-15844674D02*
X9883825Y-15835150D01*
X9883825Y-15835150D02*
X9921920Y-15835150D01*
X9921920Y-15835150D02*
X9940968Y-15844674D01*
X9940968Y-15844674D02*
X9950492Y-15863722D01*
X9950492Y-15863722D02*
X9950492Y-15882769D01*
X9950492Y-15882769D02*
X9855253Y-15901817D01*
X10026682Y-15958960D02*
X10045730Y-15968484D01*
X10045730Y-15968484D02*
X10083825Y-15968484D01*
X10083825Y-15968484D02*
X10102873Y-15958960D01*
X10102873Y-15958960D02*
X10112396Y-15939912D01*
X10112396Y-15939912D02*
X10112396Y-15930388D01*
X10112396Y-15930388D02*
X10102873Y-15911341D01*
X10102873Y-15911341D02*
X10083825Y-15901817D01*
X10083825Y-15901817D02*
X10055253Y-15901817D01*
X10055253Y-15901817D02*
X10036206Y-15892293D01*
X10036206Y-15892293D02*
X10026682Y-15873246D01*
X10026682Y-15873246D02*
X10026682Y-15863722D01*
X10026682Y-15863722D02*
X10036206Y-15844674D01*
X10036206Y-15844674D02*
X10055253Y-15835150D01*
X10055253Y-15835150D02*
X10083825Y-15835150D01*
X10083825Y-15835150D02*
X10102873Y-15844674D01*
X10179063Y-16044674D02*
X10188587Y-16035150D01*
X10188587Y-16035150D02*
X10207634Y-16006579D01*
X10207634Y-16006579D02*
X10217158Y-15987531D01*
X10217158Y-15987531D02*
X10226682Y-15958960D01*
X10226682Y-15958960D02*
X10236206Y-15911341D01*
X10236206Y-15911341D02*
X10236206Y-15873246D01*
X10236206Y-15873246D02*
X10226682Y-15825627D01*
X10226682Y-15825627D02*
X10217158Y-15797055D01*
X10217158Y-15797055D02*
X10207634Y-15778008D01*
X10207634Y-15778008D02*
X10188587Y-15749436D01*
X10188587Y-15749436D02*
X10179063Y-15739912D01*
X10540968Y-16044674D02*
X10531444Y-16035150D01*
X10531444Y-16035150D02*
X10512396Y-16006579D01*
X10512396Y-16006579D02*
X10502873Y-15987531D01*
X10502873Y-15987531D02*
X10493349Y-15958960D01*
X10493349Y-15958960D02*
X10483825Y-15911341D01*
X10483825Y-15911341D02*
X10483825Y-15873246D01*
X10483825Y-15873246D02*
X10493349Y-15825627D01*
X10493349Y-15825627D02*
X10502873Y-15797055D01*
X10502873Y-15797055D02*
X10512396Y-15778008D01*
X10512396Y-15778008D02*
X10531444Y-15749436D01*
X10531444Y-15749436D02*
X10540968Y-15739912D01*
X10617158Y-15835150D02*
X10617158Y-15968484D01*
X10617158Y-15854198D02*
X10626682Y-15844674D01*
X10626682Y-15844674D02*
X10645730Y-15835150D01*
X10645730Y-15835150D02*
X10674301Y-15835150D01*
X10674301Y-15835150D02*
X10693349Y-15844674D01*
X10693349Y-15844674D02*
X10702873Y-15863722D01*
X10702873Y-15863722D02*
X10702873Y-15968484D01*
X10826682Y-15968484D02*
X10807634Y-15958960D01*
X10807634Y-15958960D02*
X10798111Y-15949436D01*
X10798111Y-15949436D02*
X10788587Y-15930388D01*
X10788587Y-15930388D02*
X10788587Y-15873246D01*
X10788587Y-15873246D02*
X10798111Y-15854198D01*
X10798111Y-15854198D02*
X10807634Y-15844674D01*
X10807634Y-15844674D02*
X10826682Y-15835150D01*
X10826682Y-15835150D02*
X10855254Y-15835150D01*
X10855254Y-15835150D02*
X10874301Y-15844674D01*
X10874301Y-15844674D02*
X10883825Y-15854198D01*
X10883825Y-15854198D02*
X10893349Y-15873246D01*
X10893349Y-15873246D02*
X10893349Y-15930388D01*
X10893349Y-15930388D02*
X10883825Y-15949436D01*
X10883825Y-15949436D02*
X10874301Y-15958960D01*
X10874301Y-15958960D02*
X10855254Y-15968484D01*
X10855254Y-15968484D02*
X10826682Y-15968484D01*
X10950492Y-15835150D02*
X11026682Y-15835150D01*
X10979063Y-15768484D02*
X10979063Y-15939912D01*
X10979063Y-15939912D02*
X10988587Y-15958960D01*
X10988587Y-15958960D02*
X11007634Y-15968484D01*
X11007634Y-15968484D02*
X11026682Y-15968484D01*
X11245730Y-15835150D02*
X11245730Y-16035150D01*
X11245730Y-15844674D02*
X11264777Y-15835150D01*
X11264777Y-15835150D02*
X11302873Y-15835150D01*
X11302873Y-15835150D02*
X11321920Y-15844674D01*
X11321920Y-15844674D02*
X11331444Y-15854198D01*
X11331444Y-15854198D02*
X11340968Y-15873246D01*
X11340968Y-15873246D02*
X11340968Y-15930388D01*
X11340968Y-15930388D02*
X11331444Y-15949436D01*
X11331444Y-15949436D02*
X11321920Y-15958960D01*
X11321920Y-15958960D02*
X11302873Y-15968484D01*
X11302873Y-15968484D02*
X11264777Y-15968484D01*
X11264777Y-15968484D02*
X11245730Y-15958960D01*
X11455253Y-15968484D02*
X11436206Y-15958960D01*
X11436206Y-15958960D02*
X11426682Y-15939912D01*
X11426682Y-15939912D02*
X11426682Y-15768484D01*
X11617158Y-15968484D02*
X11617158Y-15863722D01*
X11617158Y-15863722D02*
X11607634Y-15844674D01*
X11607634Y-15844674D02*
X11588587Y-15835150D01*
X11588587Y-15835150D02*
X11550492Y-15835150D01*
X11550492Y-15835150D02*
X11531444Y-15844674D01*
X11617158Y-15958960D02*
X11598111Y-15968484D01*
X11598111Y-15968484D02*
X11550492Y-15968484D01*
X11550492Y-15968484D02*
X11531444Y-15958960D01*
X11531444Y-15958960D02*
X11521920Y-15939912D01*
X11521920Y-15939912D02*
X11521920Y-15920865D01*
X11521920Y-15920865D02*
X11531444Y-15901817D01*
X11531444Y-15901817D02*
X11550492Y-15892293D01*
X11550492Y-15892293D02*
X11598111Y-15892293D01*
X11598111Y-15892293D02*
X11617158Y-15882769D01*
X11683825Y-15835150D02*
X11760015Y-15835150D01*
X11712396Y-15768484D02*
X11712396Y-15939912D01*
X11712396Y-15939912D02*
X11721920Y-15958960D01*
X11721920Y-15958960D02*
X11740968Y-15968484D01*
X11740968Y-15968484D02*
X11760015Y-15968484D01*
X11902873Y-15958960D02*
X11883825Y-15968484D01*
X11883825Y-15968484D02*
X11845730Y-15968484D01*
X11845730Y-15968484D02*
X11826682Y-15958960D01*
X11826682Y-15958960D02*
X11817158Y-15939912D01*
X11817158Y-15939912D02*
X11817158Y-15863722D01*
X11817158Y-15863722D02*
X11826682Y-15844674D01*
X11826682Y-15844674D02*
X11845730Y-15835150D01*
X11845730Y-15835150D02*
X11883825Y-15835150D01*
X11883825Y-15835150D02*
X11902873Y-15844674D01*
X11902873Y-15844674D02*
X11912396Y-15863722D01*
X11912396Y-15863722D02*
X11912396Y-15882769D01*
X11912396Y-15882769D02*
X11817158Y-15901817D01*
X12083825Y-15968484D02*
X12083825Y-15768484D01*
X12083825Y-15958960D02*
X12064777Y-15968484D01*
X12064777Y-15968484D02*
X12026682Y-15968484D01*
X12026682Y-15968484D02*
X12007634Y-15958960D01*
X12007634Y-15958960D02*
X11998111Y-15949436D01*
X11998111Y-15949436D02*
X11988587Y-15930388D01*
X11988587Y-15930388D02*
X11988587Y-15873246D01*
X11988587Y-15873246D02*
X11998111Y-15854198D01*
X11998111Y-15854198D02*
X12007634Y-15844674D01*
X12007634Y-15844674D02*
X12026682Y-15835150D01*
X12026682Y-15835150D02*
X12064777Y-15835150D01*
X12064777Y-15835150D02*
X12083825Y-15844674D01*
X12160015Y-16044674D02*
X12169539Y-16035150D01*
X12169539Y-16035150D02*
X12188587Y-16006579D01*
X12188587Y-16006579D02*
X12198111Y-15987531D01*
X12198111Y-15987531D02*
X12207634Y-15958960D01*
X12207634Y-15958960D02*
X12217158Y-15911341D01*
X12217158Y-15911341D02*
X12217158Y-15873246D01*
X12217158Y-15873246D02*
X12207634Y-15825627D01*
X12207634Y-15825627D02*
X12198111Y-15797055D01*
X12198111Y-15797055D02*
X12188587Y-15778008D01*
X12188587Y-15778008D02*
X12169539Y-15749436D01*
X12169539Y-15749436D02*
X12160015Y-15739912D01*
M02*
