M48
; DRILL file {KiCad 8.0.4} date 2024-08-09T22:29:42-0400
; FORMAT={-:-/ absolute / inch / decimal}
; #@! TF.CreationDate,2024-08-09T22:29:42-04:00
; #@! TF.GenerationSoftware,Kicad,Pcbnew,8.0.4
; #@! TF.FileFunction,Plated,1,2,PTH
FMAT,2
INCH
; #@! TA.AperFunction,Plated,PTH,ViaDrill
T1C0.0118
; #@! TA.AperFunction,Plated,PTH,ComponentDrill
T2C0.0118
; #@! TA.AperFunction,Plated,PTH,ViaDrill
T3C0.0157
; #@! TA.AperFunction,Plated,PTH,ComponentDrill
T4C0.0236
; #@! TA.AperFunction,Plated,PTH,ComponentDrill
T5C0.0394
; #@! TA.AperFunction,Plated,PTH,ComponentDrill
T6C0.1661
%
G90
G05
T1
X2.194Y-3.654
X2.348Y-4.046
X2.38Y-3.914
X2.39Y-4.422
X2.5063Y-4.9689
X2.516Y-3.522
X2.5244Y-5.3327
X2.5346Y-3.1984
X2.5587Y-3.052
X2.5587Y-3.3909
X2.574Y-3.71
X2.5827Y-3.1827
X2.5836Y-3.2147
X2.5949Y-5.3327
X2.6339Y-2.7244
X2.6685Y-1.8303
X2.6685Y-1.8925
X2.674Y-3.1355
X2.674Y-3.1652
X2.674Y-3.1
X2.6827Y-3.322
X2.6925Y-3.4232
X2.6988Y-1.7543
X2.726Y-1.8303
X2.726Y-1.8925
X2.7835Y-1.8303
X2.7835Y-1.8925
X2.7862Y-2.6331
X2.884Y-2.124
X2.8862Y-2.6012
X2.8862Y-2.6331
X3.038Y-3.31
X3.0874Y-3.115
X3.1362Y-2.5453
X3.2862Y-3.0311
X3.2866Y-3.0886
X3.4362Y-2.8984
X3.513Y-5.1937
X3.513Y-5.2504
X3.6362Y-2.8984
X3.642Y-3.322
X3.7795Y-3.189
X3.8362Y-2.9035
X3.9193Y-4.6063
X3.9827Y-5.0476
X3.9933Y-4.7024
X4.0055Y-4.6598
X4.0252Y-4.7165
X4.0483Y-5.2229
X4.0551Y-4.7835
X4.1034Y-4.562
X4.1287Y-4.6016
X4.1339Y-3.3071
X4.1343Y-4.2473
X4.138Y-3.11
X4.1469Y-3.7937
X4.1469Y-4.5756
X4.154Y-4.442
X4.1681Y-4.2878
X4.1858Y-4.0283
X4.2094Y-3.4791
X4.2126Y-4.7106
X4.2287Y-3.6701
X4.2291Y-4.0807
X4.2323Y-3.5106
X4.2528Y-3.9472
X4.288Y-1.672
X4.3063Y-5.0047
X4.3197Y-4.0283
X4.3244Y-3.4791
X4.3323Y-4.3307
X4.3354Y-4.7362
X4.3362Y-2.9043
X4.3591Y-3.7937
X4.3626Y-3.6701
X4.3661Y-3.5106
X4.3732Y-4.6386
X4.3798Y-4.5756
X4.4264Y-4.4382
X4.4291Y-4.0354
X4.4374Y-4.5815
X4.4374Y-4.6484
X4.4583Y-3.4791
X4.4854Y-4.2917
X4.4854Y-4.3579
X4.4965Y-3.6701
X4.4996Y-4.7138
X4.5Y-3.5106
X4.5043Y-4.5815
X4.5043Y-4.6484
X4.526Y-4.7134
X4.5417Y-4.5118
X4.5429Y-4.2917
X4.5575Y-4.4476
X4.5732Y-4.5283
X4.5732Y-4.5598
X4.5732Y-4.5925
X4.5732Y-4.6386
X4.574Y-4.6701
X4.5921Y-3.4791
X4.5929Y-4.4795
X4.6004Y-4.2921
X4.6004Y-4.3571
X4.6303Y-3.6701
X4.6339Y-3.5106
X4.6386Y-4.6543
X4.6394Y-4.5441
X4.6394Y-4.5913
X4.6569Y-4.6345
X4.6654Y-4.3504
X4.6732Y-3.9772
X4.6878Y-4.4453
X4.7248Y-4.5126
X4.726Y-3.4791
X4.7295Y-4.6335
X4.7295Y-4.6909
X4.7361Y-3.7143
X4.7677Y-3.5106
X4.7925Y-3.752
X4.7937Y-4.576
X4.7937Y-4.7484
X4.8129Y-3.778
X4.888Y-4.628
X4.9276Y-1.939
X4.9276Y-2.2374
X4.9945Y-2.2346
T2
X2.7759Y-5.1821
X2.7759Y-5.2411
X2.7759Y-5.3002
X2.8349Y-5.1821
X2.8349Y-5.2411
X2.8349Y-5.3002
T3
X2.43Y-4.81
X2.4594Y-5.0697
X2.498Y-4.826
X2.5217Y-5.2752
X2.5461Y-4.974
X2.5492Y-5.1437
X2.6Y-4.6898
X2.6134Y-4.878
X2.6382Y-5.3783
X2.7362Y-2.9043
X2.7904Y-2.815
X2.8362Y-2.9043
X2.8941Y-3.1142
X2.9134Y-3.316
X2.9134Y-3.6024
X2.9315Y-3.035
X3.0362Y-2.5819
X3.0894Y-5.3858
X3.2362Y-2.8835
X3.3709Y-5.2504
X3.4173Y-5.326
X3.4276Y-3.1083
X3.4673Y-3.0099
X3.4681Y-3.2189
X3.5248Y-3.0099
X3.5358Y-2.8965
X3.5822Y-3.0099
X3.5823Y-3.1465
X3.7488Y-5.3323
X3.8094Y-5.2504
X3.8366Y-2.5866
X3.8992Y-5.4429
X3.9063Y-5.2969
X3.9516Y-5.3472
X3.9835Y-5.2551
X4.0362Y-2.8622
X4.0732Y-4.8268
X4.1Y-5.313
X4.124Y-5.4528
X4.1469Y-4.7681
X4.2362Y-2.8622
X4.2535Y-3.8331
X4.435Y-5.4953
X4.5366Y-2.5862
X4.544Y-4.8055
X4.6075Y-4.75
X4.6114Y-3.8925
X4.6346Y-4.9055
X4.6732Y-4.5386
X4.837Y-4.1402
T5
X2.2102Y-2.3657
X2.2102Y-2.4657
X2.2102Y-2.5657
X2.2102Y-2.6657
X2.2102Y-2.7657
X2.2102Y-2.8657
X2.2102Y-2.9657
X2.2102Y-3.0657
X2.2102Y-3.1657
X2.2102Y-3.2657
X3.1736Y-1.7815
X3.2736Y-1.7815
X3.3736Y-1.7815
X3.4736Y-1.7815
X3.5736Y-1.7815
X3.6736Y-1.7815
X3.7736Y-1.7815
X3.8736Y-1.7815
X3.9736Y-1.7815
X4.0736Y-1.7815
X4.9622Y-2.3657
X4.9622Y-2.4657
X4.9622Y-2.5657
X4.9622Y-2.6657
X4.9622Y-2.7657
X4.9622Y-2.8657
X4.9622Y-2.9657
X4.9622Y-3.0657
X4.9622Y-3.1657
X4.9622Y-3.2657
T6
X2.4449Y-1.8189
X2.4449Y-2.7244
X4.7283Y-1.8189
X4.7283Y-2.7244
T4
G00X3.4161Y-5.4244
M15
G01X3.4161Y-5.3811
M16
G05
G00X3.4161Y-5.5791
M15
G01X3.4161Y-5.5555
M16
G05
G00X3.7563Y-5.4244
M15
G01X3.7563Y-5.3811
M16
G05
G00X3.7563Y-5.5791
M15
G01X3.7563Y-5.5555
M16
G05
M30
