%TF.GenerationSoftware,KiCad,Pcbnew,8.0.4*%
%TF.CreationDate,2024-08-08T16:45:06-04:00*%
%TF.ProjectId,beepy,62656570-792e-46b6-9963-61645f706362,rev?*%
%TF.SameCoordinates,Original*%
%TF.FileFunction,Legend,Top*%
%TF.FilePolarity,Positive*%
%FSLAX46Y46*%
G04 Gerber Fmt 4.6, Leading zero omitted, Abs format (unit mm)*
G04 Created by KiCad (PCBNEW 8.0.4) date 2024-08-08 16:45:06*
%MOMM*%
%LPD*%
G01*
G04 APERTURE LIST*
%ADD10C,0.150000*%
%ADD11C,0.120000*%
%ADD12C,2.700000*%
%ADD13R,0.800000X0.700000*%
%ADD14C,0.750000*%
%ADD15R,1.700000X1.700000*%
%ADD16O,1.700000X1.700000*%
%ADD17C,6.000000*%
%ADD18O,1.000000X1.600000*%
%ADD19O,1.000000X2.100000*%
%ADD20C,0.650000*%
%ADD21C,0.900000*%
G04 APERTURE END LIST*
D10*
X56598501Y-96482001D02*
X125581500Y-96482001D01*
X107034717Y-138296000D02*
X108753450Y-138296000D01*
X98553678Y-96482001D02*
X98553678Y-95371001D01*
X99293536Y-138700000D02*
X100202984Y-138700000D01*
X67504167Y-136476132D02*
X71111883Y-137657980D01*
X75747719Y-140777843D02*
G75*
G02*
X75385422Y-140898088I-362319J485743D01*
G01*
X80929179Y-138296000D02*
X80929179Y-138397000D01*
X86231679Y-95371001D02*
X86231679Y-96482001D01*
X98553678Y-95371001D02*
X86231679Y-95371001D01*
X74426038Y-140898068D02*
G75*
G02*
X74042796Y-140761517I-38J605968D01*
G01*
X99091536Y-138296000D02*
X99091536Y-138498000D01*
X116596318Y-136175000D02*
X121238500Y-136175000D01*
X77590113Y-139306000D02*
G75*
G02*
X78600113Y-138296013I1009987J0D01*
G01*
X78430946Y-95371001D02*
X70451946Y-95371001D01*
X122753500Y-134660000D02*
G75*
G02*
X121238500Y-136175000I-1515000J0D01*
G01*
X81232179Y-138700000D02*
G75*
G02*
X80929200Y-138397000I-79J302900D01*
G01*
X70451946Y-95371001D02*
X70451946Y-96482001D01*
X56598501Y-96482001D02*
X56598501Y-130317000D01*
X78600113Y-138296000D02*
X80929179Y-138296000D01*
X77590113Y-139771643D02*
X77590113Y-139306000D01*
X110459418Y-137999122D02*
G75*
G02*
X108753450Y-138295989I-1705918J4753022D01*
G01*
X101230178Y-138498000D02*
X101230178Y-138296000D01*
X73771305Y-140539858D02*
X74042807Y-140761503D01*
X101230178Y-138296000D02*
X107034717Y-138296000D01*
X110459419Y-137999123D02*
X114549157Y-136531254D01*
X82985633Y-138397000D02*
X82985633Y-138296000D01*
X72155247Y-139097697D02*
X72155247Y-139782358D01*
X65617626Y-136175000D02*
G75*
G02*
X67504163Y-136476144I-26J-6059900D01*
G01*
X77590113Y-139771643D02*
G75*
G02*
X76832613Y-140529213I-757613J43D01*
G01*
X56598501Y-130317000D02*
X59426501Y-130317000D01*
X125581500Y-96482001D02*
X98553678Y-96482001D01*
X101230178Y-138498000D02*
G75*
G02*
X101028178Y-138699978I-201978J0D01*
G01*
X122753500Y-130317000D02*
X125581500Y-130317000D01*
X71111882Y-137657980D02*
G75*
G02*
X72155217Y-139097697I-471682J-1439720D01*
G01*
X122753500Y-134660000D02*
X122753500Y-130317000D01*
X114549156Y-136531253D02*
G75*
G02*
X116596318Y-136174994I2047144J-5703547D01*
G01*
X59426501Y-130317000D02*
X59426501Y-134660000D01*
X60941501Y-136175000D02*
X65617626Y-136175000D01*
X76081180Y-140529143D02*
X76832613Y-140529143D01*
X60941501Y-136175000D02*
G75*
G02*
X59426500Y-134660000I99J1515100D01*
G01*
X74426039Y-140898068D02*
X75385422Y-140898068D01*
X86231679Y-96482001D02*
X78430946Y-96482001D01*
X72912747Y-140539858D02*
G75*
G02*
X72155242Y-139782358I53J757558D01*
G01*
X78430946Y-96482001D02*
X78430946Y-95371001D01*
X81232179Y-138700000D02*
X82682633Y-138700000D01*
X100202984Y-138700000D02*
X101028178Y-138700000D01*
X70451946Y-96482001D02*
X56598501Y-96482001D01*
X82985633Y-138296000D02*
X99091536Y-138296000D01*
X82985633Y-138397000D02*
G75*
G02*
X82682633Y-138700033I-303033J0D01*
G01*
X99293536Y-138700000D02*
G75*
G02*
X99091500Y-138498000I-36J202000D01*
G01*
X125581500Y-130317000D02*
X125581500Y-96482001D01*
X75747718Y-140777842D02*
X76081180Y-140529143D01*
X72912747Y-140539858D02*
X73771305Y-140539858D01*
X119270476Y-46724819D02*
X119270476Y-45724819D01*
X119270476Y-45724819D02*
X119603809Y-46439104D01*
X119603809Y-46439104D02*
X119937142Y-45724819D01*
X119937142Y-45724819D02*
X119937142Y-46724819D01*
X120365714Y-45820057D02*
X120413333Y-45772438D01*
X120413333Y-45772438D02*
X120508571Y-45724819D01*
X120508571Y-45724819D02*
X120746666Y-45724819D01*
X120746666Y-45724819D02*
X120841904Y-45772438D01*
X120841904Y-45772438D02*
X120889523Y-45820057D01*
X120889523Y-45820057D02*
X120937142Y-45915295D01*
X120937142Y-45915295D02*
X120937142Y-46010533D01*
X120937142Y-46010533D02*
X120889523Y-46153390D01*
X120889523Y-46153390D02*
X120318095Y-46724819D01*
X120318095Y-46724819D02*
X120937142Y-46724819D01*
X119270476Y-69644819D02*
X119270476Y-68644819D01*
X119270476Y-68644819D02*
X119603809Y-69359104D01*
X119603809Y-69359104D02*
X119937142Y-68644819D01*
X119937142Y-68644819D02*
X119937142Y-69644819D01*
X120841904Y-68978152D02*
X120841904Y-69644819D01*
X120603809Y-68597200D02*
X120365714Y-69311485D01*
X120365714Y-69311485D02*
X120984761Y-69311485D01*
X61110476Y-69734819D02*
X61110476Y-68734819D01*
X61110476Y-68734819D02*
X61443809Y-69449104D01*
X61443809Y-69449104D02*
X61777142Y-68734819D01*
X61777142Y-68734819D02*
X61777142Y-69734819D01*
X62158095Y-68734819D02*
X62777142Y-68734819D01*
X62777142Y-68734819D02*
X62443809Y-69115771D01*
X62443809Y-69115771D02*
X62586666Y-69115771D01*
X62586666Y-69115771D02*
X62681904Y-69163390D01*
X62681904Y-69163390D02*
X62729523Y-69211009D01*
X62729523Y-69211009D02*
X62777142Y-69306247D01*
X62777142Y-69306247D02*
X62777142Y-69544342D01*
X62777142Y-69544342D02*
X62729523Y-69639580D01*
X62729523Y-69639580D02*
X62681904Y-69687200D01*
X62681904Y-69687200D02*
X62586666Y-69734819D01*
X62586666Y-69734819D02*
X62300952Y-69734819D01*
X62300952Y-69734819D02*
X62205714Y-69687200D01*
X62205714Y-69687200D02*
X62158095Y-69639580D01*
X61290476Y-46714819D02*
X61290476Y-45714819D01*
X61290476Y-45714819D02*
X61623809Y-46429104D01*
X61623809Y-46429104D02*
X61957142Y-45714819D01*
X61957142Y-45714819D02*
X61957142Y-46714819D01*
X62957142Y-46714819D02*
X62385714Y-46714819D01*
X62671428Y-46714819D02*
X62671428Y-45714819D01*
X62671428Y-45714819D02*
X62576190Y-45857676D01*
X62576190Y-45857676D02*
X62480952Y-45952914D01*
X62480952Y-45952914D02*
X62385714Y-46000533D01*
D11*
%TO.C,REF\u002A\u002A*%
X59690000Y-49937500D02*
X59690000Y-92757500D01*
X59690000Y-49937500D02*
X122490000Y-49937500D01*
X59690000Y-92757500D02*
X122490000Y-92757500D01*
X122490000Y-49937500D02*
X122490000Y-92757500D01*
%TD*%
%LPC*%
D12*
%TO.C,H1*%
X62100000Y-140500000D03*
%TD*%
D13*
%TO.C,D2*%
X69470000Y-44560000D03*
X67770000Y-44560000D03*
X67770000Y-45660000D03*
X69470000Y-45660000D03*
%TD*%
D12*
%TO.C,H2*%
X120100000Y-140500000D03*
%TD*%
D14*
%TO.C,SW2*%
X127385000Y-53030000D03*
X124635000Y-53030000D03*
%TD*%
D15*
%TO.C,J44*%
X126040000Y-60090000D03*
D16*
X126040000Y-62630000D03*
X126040000Y-65170000D03*
X126040000Y-67710000D03*
X126040000Y-70250000D03*
X126040000Y-72790000D03*
X126040000Y-75330000D03*
X126040000Y-77870000D03*
X126040000Y-80410000D03*
X126040000Y-82950000D03*
%TD*%
D17*
%TO.C,M1*%
X62100000Y-46200000D03*
%TD*%
%TO.C,M3*%
X120100000Y-69200000D03*
%TD*%
%TO.C,M4*%
X120100000Y-46200000D03*
%TD*%
D18*
%TO.C,J15*%
X95410000Y-141410000D03*
D19*
X95410000Y-137230000D03*
D20*
X93980000Y-137760000D03*
X88200000Y-137760000D03*
D18*
X86770000Y-141410000D03*
D19*
X86770000Y-137230000D03*
%TD*%
D15*
%TO.C,J47*%
X56140000Y-60090000D03*
D16*
X56140000Y-62630000D03*
X56140000Y-65170000D03*
X56140000Y-67710000D03*
X56140000Y-70250000D03*
X56140000Y-72790000D03*
X56140000Y-75330000D03*
X56140000Y-77870000D03*
X56140000Y-80410000D03*
X56140000Y-82950000D03*
%TD*%
D17*
%TO.C,M2*%
X62100000Y-69200000D03*
%TD*%
D16*
%TO.C,J46*%
X80610000Y-45250000D03*
X83150000Y-45250000D03*
X85690000Y-45250000D03*
X88230000Y-45250000D03*
X90770000Y-45250000D03*
X93310000Y-45250000D03*
X95850000Y-45250000D03*
X98390000Y-45250000D03*
X100930000Y-45250000D03*
D15*
X103470000Y-45250000D03*
%TD*%
D21*
%TO.C,SW1*%
X72220000Y-141310000D03*
X75220000Y-141310000D03*
%TD*%
%LPD*%
M02*
